M48
INCH,TZ
T1C0.0157
T2C0.0433
T3C0.0598
T4C0.0787
T5C0.0984
%
G90
G05
T1
X39400Y-32950
X39400Y-33300
X39400Y-39000
X39750Y-32950
X39750Y-33300
X40100Y-32950
X40100Y-33300
X40369Y-36000
X40626Y-38844
X41450Y-38850
X41950Y-38150
X42400Y-35400
X42600Y-40850
X42600Y-41150
X43650Y-36600
X43650Y-36600
X43700Y-35300
X46400Y-34000
X46450Y-38800
X46450Y-39100
X46650Y-35300
X51700Y-32700
X51700Y-33100
X51700Y-33500
X55800Y-32850
X55800Y-33150
X59000Y-32600
X59000Y-33000
X59000Y-33400
T2
X55000Y-38500
X56000Y-38500
X57000Y-38500
T3
X39000Y-30000
X41000Y-30000
X43000Y-30000
X45000Y-30000
X47000Y-30000
T4
X58195Y-30000
X61305Y-30000
X51045Y-30000
X54155Y-30000
T5
X51000Y-40000
X61000Y-40000
T0
M30
