G04 #@! TF.GenerationSoftware,KiCad,Pcbnew,(5.1.2)-2*
G04 #@! TF.CreationDate,2019-08-17T13:58:46+01:00*
G04 #@! TF.ProjectId,Sequencer,53657175-656e-4636-9572-2e6b69636164,rev?*
G04 #@! TF.SameCoordinates,Original*
G04 #@! TF.FileFunction,Soldermask,Top*
G04 #@! TF.FilePolarity,Negative*
%FSLAX46Y46*%
G04 Gerber Fmt 4.6, Leading zero omitted, Abs format (unit mm)*
G04 Created by KiCad (PCBNEW (5.1.2)-2) date 2019-08-17 13:58:46*
%MOMM*%
%LPD*%
G04 APERTURE LIST*
%ADD10C,0.100000*%
G04 APERTURE END LIST*
D10*
G36*
X164360073Y-102388278D02*
G01*
X164481579Y-102412447D01*
X164657551Y-102485337D01*
X164756056Y-102526139D01*
X164782042Y-102536903D01*
X165052451Y-102717585D01*
X165282415Y-102947549D01*
X165463097Y-103217958D01*
X165587553Y-103518421D01*
X165651000Y-103837391D01*
X165651000Y-104162609D01*
X165587553Y-104481579D01*
X165463097Y-104782042D01*
X165282415Y-105052451D01*
X165052451Y-105282415D01*
X164782042Y-105463097D01*
X164481579Y-105587553D01*
X164375256Y-105608702D01*
X164162611Y-105651000D01*
X163837389Y-105651000D01*
X163624744Y-105608702D01*
X163518421Y-105587553D01*
X163217958Y-105463097D01*
X162947549Y-105282415D01*
X162717585Y-105052451D01*
X162536903Y-104782042D01*
X162412447Y-104481579D01*
X162349000Y-104162609D01*
X162349000Y-103837391D01*
X162412447Y-103518421D01*
X162536903Y-103217958D01*
X162717585Y-102947549D01*
X162947549Y-102717585D01*
X163217958Y-102536903D01*
X163243945Y-102526139D01*
X163342449Y-102485337D01*
X163518421Y-102412447D01*
X163639927Y-102388278D01*
X163837389Y-102349000D01*
X164162611Y-102349000D01*
X164360073Y-102388278D01*
X164360073Y-102388278D01*
G37*
G36*
X92360073Y-102388278D02*
G01*
X92481579Y-102412447D01*
X92657551Y-102485337D01*
X92756056Y-102526139D01*
X92782042Y-102536903D01*
X93052451Y-102717585D01*
X93282415Y-102947549D01*
X93463097Y-103217958D01*
X93587553Y-103518421D01*
X93651000Y-103837391D01*
X93651000Y-104162609D01*
X93587553Y-104481579D01*
X93463097Y-104782042D01*
X93282415Y-105052451D01*
X93052451Y-105282415D01*
X92782042Y-105463097D01*
X92481579Y-105587553D01*
X92375256Y-105608702D01*
X92162611Y-105651000D01*
X91837389Y-105651000D01*
X91624744Y-105608702D01*
X91518421Y-105587553D01*
X91217958Y-105463097D01*
X90947549Y-105282415D01*
X90717585Y-105052451D01*
X90536903Y-104782042D01*
X90412447Y-104481579D01*
X90349000Y-104162609D01*
X90349000Y-103837391D01*
X90412447Y-103518421D01*
X90536903Y-103217958D01*
X90717585Y-102947549D01*
X90947549Y-102717585D01*
X91217958Y-102536903D01*
X91243945Y-102526139D01*
X91342449Y-102485337D01*
X91518421Y-102412447D01*
X91639927Y-102388278D01*
X91837389Y-102349000D01*
X92162611Y-102349000D01*
X92360073Y-102388278D01*
X92360073Y-102388278D01*
G37*
G36*
X103141000Y-104991000D02*
G01*
X99539000Y-104991000D01*
X99539000Y-103289000D01*
X103141000Y-103289000D01*
X103141000Y-104991000D01*
X103141000Y-104991000D01*
G37*
G36*
X108741000Y-104991000D02*
G01*
X105139000Y-104991000D01*
X105139000Y-103289000D01*
X108741000Y-103289000D01*
X108741000Y-104991000D01*
X108741000Y-104991000D01*
G37*
G36*
X155829943Y-98666248D02*
G01*
X156385189Y-98896238D01*
X156385190Y-98896239D01*
X156884899Y-99230134D01*
X157309866Y-99655101D01*
X157477948Y-99906653D01*
X157643762Y-100154811D01*
X157873752Y-100710057D01*
X157991000Y-101299501D01*
X157991000Y-101900499D01*
X157873752Y-102489943D01*
X157643762Y-103045189D01*
X157643761Y-103045190D01*
X157309866Y-103544899D01*
X156884899Y-103969866D01*
X156633347Y-104137948D01*
X156385189Y-104303762D01*
X155829943Y-104533752D01*
X155240499Y-104651000D01*
X154639501Y-104651000D01*
X154050057Y-104533752D01*
X153494811Y-104303762D01*
X153246653Y-104137948D01*
X152995101Y-103969866D01*
X152570134Y-103544899D01*
X152236239Y-103045190D01*
X152236238Y-103045189D01*
X152006248Y-102489943D01*
X151889000Y-101900499D01*
X151889000Y-101299501D01*
X152006248Y-100710057D01*
X152236238Y-100154811D01*
X152402052Y-99906653D01*
X152570134Y-99655101D01*
X152995101Y-99230134D01*
X153494810Y-98896239D01*
X153494811Y-98896238D01*
X154050057Y-98666248D01*
X154639501Y-98549000D01*
X155240499Y-98549000D01*
X155829943Y-98666248D01*
X155829943Y-98666248D01*
G37*
G36*
X130429943Y-98666248D02*
G01*
X130985189Y-98896238D01*
X130985190Y-98896239D01*
X131484899Y-99230134D01*
X131909866Y-99655101D01*
X132077948Y-99906653D01*
X132243762Y-100154811D01*
X132473752Y-100710057D01*
X132591000Y-101299501D01*
X132591000Y-101900499D01*
X132473752Y-102489943D01*
X132243762Y-103045189D01*
X132243761Y-103045190D01*
X131909866Y-103544899D01*
X131484899Y-103969866D01*
X131233347Y-104137948D01*
X130985189Y-104303762D01*
X130429943Y-104533752D01*
X129840499Y-104651000D01*
X129239501Y-104651000D01*
X128650057Y-104533752D01*
X128094811Y-104303762D01*
X127846653Y-104137948D01*
X127595101Y-103969866D01*
X127170134Y-103544899D01*
X126836239Y-103045190D01*
X126836238Y-103045189D01*
X126606248Y-102489943D01*
X126489000Y-101900499D01*
X126489000Y-101299501D01*
X126606248Y-100710057D01*
X126836238Y-100154811D01*
X127002052Y-99906653D01*
X127170134Y-99655101D01*
X127595101Y-99230134D01*
X128094810Y-98896239D01*
X128094811Y-98896238D01*
X128650057Y-98666248D01*
X129239501Y-98549000D01*
X129840499Y-98549000D01*
X130429943Y-98666248D01*
X130429943Y-98666248D01*
G37*
G36*
X116117468Y-101107565D02*
G01*
X116156138Y-101119296D01*
X116191777Y-101138346D01*
X116223017Y-101163983D01*
X116248654Y-101195223D01*
X116267704Y-101230862D01*
X116279435Y-101269532D01*
X116284000Y-101315888D01*
X116284000Y-102392112D01*
X116279435Y-102438468D01*
X116267704Y-102477138D01*
X116248654Y-102512777D01*
X116223017Y-102544017D01*
X116191777Y-102569654D01*
X116156138Y-102588704D01*
X116117468Y-102600435D01*
X116071112Y-102605000D01*
X115419888Y-102605000D01*
X115373532Y-102600435D01*
X115334862Y-102588704D01*
X115299223Y-102569654D01*
X115267983Y-102544017D01*
X115242346Y-102512777D01*
X115223296Y-102477138D01*
X115211565Y-102438468D01*
X115207000Y-102392112D01*
X115207000Y-101315888D01*
X115211565Y-101269532D01*
X115223296Y-101230862D01*
X115242346Y-101195223D01*
X115267983Y-101163983D01*
X115299223Y-101138346D01*
X115334862Y-101119296D01*
X115373532Y-101107565D01*
X115419888Y-101103000D01*
X116071112Y-101103000D01*
X116117468Y-101107565D01*
X116117468Y-101107565D01*
G37*
G36*
X114242468Y-101107565D02*
G01*
X114281138Y-101119296D01*
X114316777Y-101138346D01*
X114348017Y-101163983D01*
X114373654Y-101195223D01*
X114392704Y-101230862D01*
X114404435Y-101269532D01*
X114409000Y-101315888D01*
X114409000Y-102392112D01*
X114404435Y-102438468D01*
X114392704Y-102477138D01*
X114373654Y-102512777D01*
X114348017Y-102544017D01*
X114316777Y-102569654D01*
X114281138Y-102588704D01*
X114242468Y-102600435D01*
X114196112Y-102605000D01*
X113544888Y-102605000D01*
X113498532Y-102600435D01*
X113459862Y-102588704D01*
X113424223Y-102569654D01*
X113392983Y-102544017D01*
X113367346Y-102512777D01*
X113348296Y-102477138D01*
X113336565Y-102438468D01*
X113332000Y-102392112D01*
X113332000Y-101315888D01*
X113336565Y-101269532D01*
X113348296Y-101230862D01*
X113367346Y-101195223D01*
X113392983Y-101163983D01*
X113424223Y-101138346D01*
X113459862Y-101119296D01*
X113498532Y-101107565D01*
X113544888Y-101103000D01*
X114196112Y-101103000D01*
X114242468Y-101107565D01*
X114242468Y-101107565D01*
G37*
G36*
X113911000Y-99711000D02*
G01*
X112909000Y-99711000D01*
X112909000Y-98409000D01*
X113911000Y-98409000D01*
X113911000Y-99711000D01*
X113911000Y-99711000D01*
G37*
G36*
X110611000Y-99711000D02*
G01*
X109609000Y-99711000D01*
X109609000Y-98409000D01*
X110611000Y-98409000D01*
X110611000Y-99711000D01*
X110611000Y-99711000D01*
G37*
G36*
X116401468Y-98186565D02*
G01*
X116440138Y-98198296D01*
X116475777Y-98217346D01*
X116507017Y-98242983D01*
X116532654Y-98274223D01*
X116551704Y-98309862D01*
X116563435Y-98348532D01*
X116568000Y-98394888D01*
X116568000Y-99471112D01*
X116563435Y-99517468D01*
X116551704Y-99556138D01*
X116532654Y-99591777D01*
X116507017Y-99623017D01*
X116475777Y-99648654D01*
X116440138Y-99667704D01*
X116401468Y-99679435D01*
X116355112Y-99684000D01*
X115703888Y-99684000D01*
X115657532Y-99679435D01*
X115618862Y-99667704D01*
X115583223Y-99648654D01*
X115551983Y-99623017D01*
X115526346Y-99591777D01*
X115507296Y-99556138D01*
X115495565Y-99517468D01*
X115491000Y-99471112D01*
X115491000Y-98394888D01*
X115495565Y-98348532D01*
X115507296Y-98309862D01*
X115526346Y-98274223D01*
X115551983Y-98242983D01*
X115583223Y-98217346D01*
X115618862Y-98198296D01*
X115657532Y-98186565D01*
X115703888Y-98182000D01*
X116355112Y-98182000D01*
X116401468Y-98186565D01*
X116401468Y-98186565D01*
G37*
G36*
X118276468Y-98186565D02*
G01*
X118315138Y-98198296D01*
X118350777Y-98217346D01*
X118382017Y-98242983D01*
X118407654Y-98274223D01*
X118426704Y-98309862D01*
X118438435Y-98348532D01*
X118443000Y-98394888D01*
X118443000Y-99471112D01*
X118438435Y-99517468D01*
X118426704Y-99556138D01*
X118407654Y-99591777D01*
X118382017Y-99623017D01*
X118350777Y-99648654D01*
X118315138Y-99667704D01*
X118276468Y-99679435D01*
X118230112Y-99684000D01*
X117578888Y-99684000D01*
X117532532Y-99679435D01*
X117493862Y-99667704D01*
X117458223Y-99648654D01*
X117426983Y-99623017D01*
X117401346Y-99591777D01*
X117382296Y-99556138D01*
X117370565Y-99517468D01*
X117366000Y-99471112D01*
X117366000Y-98394888D01*
X117370565Y-98348532D01*
X117382296Y-98309862D01*
X117401346Y-98274223D01*
X117426983Y-98242983D01*
X117458223Y-98217346D01*
X117493862Y-98198296D01*
X117532532Y-98186565D01*
X117578888Y-98182000D01*
X118230112Y-98182000D01*
X118276468Y-98186565D01*
X118276468Y-98186565D01*
G37*
G36*
X105541000Y-99164000D02*
G01*
X104639000Y-99164000D01*
X104639000Y-98162000D01*
X105541000Y-98162000D01*
X105541000Y-99164000D01*
X105541000Y-99164000D01*
G37*
G36*
X103641000Y-99164000D02*
G01*
X102739000Y-99164000D01*
X102739000Y-98162000D01*
X103641000Y-98162000D01*
X103641000Y-99164000D01*
X103641000Y-99164000D01*
G37*
G36*
X139896720Y-96753520D02*
G01*
X140085881Y-96810901D01*
X140260212Y-96904083D01*
X140413015Y-97029485D01*
X140538417Y-97182288D01*
X140574880Y-97250505D01*
X140631598Y-97356617D01*
X140631599Y-97356620D01*
X140688980Y-97545781D01*
X140703500Y-97693207D01*
X140703500Y-97886794D01*
X140688980Y-98034220D01*
X140631599Y-98223381D01*
X140538417Y-98397712D01*
X140413015Y-98550515D01*
X140260212Y-98675917D01*
X140178333Y-98719682D01*
X140085883Y-98769098D01*
X140085880Y-98769099D01*
X139896719Y-98826480D01*
X139700000Y-98845855D01*
X139503280Y-98826480D01*
X139314119Y-98769099D01*
X139139788Y-98675917D01*
X138986985Y-98550515D01*
X138861583Y-98397712D01*
X138770537Y-98227377D01*
X138768402Y-98223383D01*
X138757418Y-98187174D01*
X138711020Y-98034219D01*
X138696500Y-97886793D01*
X138696500Y-97693206D01*
X138711020Y-97545780D01*
X138768401Y-97356619D01*
X138861583Y-97182288D01*
X138986985Y-97029485D01*
X139139788Y-96904083D01*
X139314120Y-96810901D01*
X139503281Y-96753520D01*
X139700000Y-96734145D01*
X139896720Y-96753520D01*
X139896720Y-96753520D01*
G37*
G36*
X142436720Y-96753520D02*
G01*
X142625881Y-96810901D01*
X142800212Y-96904083D01*
X142953015Y-97029485D01*
X143078417Y-97182288D01*
X143114880Y-97250505D01*
X143171598Y-97356617D01*
X143171599Y-97356620D01*
X143228980Y-97545781D01*
X143243500Y-97693207D01*
X143243500Y-97886794D01*
X143228980Y-98034220D01*
X143171599Y-98223381D01*
X143078417Y-98397712D01*
X142953015Y-98550515D01*
X142800212Y-98675917D01*
X142718333Y-98719682D01*
X142625883Y-98769098D01*
X142625880Y-98769099D01*
X142436719Y-98826480D01*
X142240000Y-98845855D01*
X142043280Y-98826480D01*
X141854119Y-98769099D01*
X141679788Y-98675917D01*
X141526985Y-98550515D01*
X141401583Y-98397712D01*
X141310537Y-98227377D01*
X141308402Y-98223383D01*
X141297418Y-98187174D01*
X141251020Y-98034219D01*
X141236500Y-97886793D01*
X141236500Y-97693206D01*
X141251020Y-97545780D01*
X141308401Y-97356619D01*
X141401583Y-97182288D01*
X141526985Y-97029485D01*
X141679788Y-96904083D01*
X141854120Y-96810901D01*
X142043281Y-96753520D01*
X142240000Y-96734145D01*
X142436720Y-96753520D01*
X142436720Y-96753520D01*
G37*
G36*
X145783500Y-98841000D02*
G01*
X143776500Y-98841000D01*
X143776500Y-96739000D01*
X145783500Y-96739000D01*
X145783500Y-98841000D01*
X145783500Y-98841000D01*
G37*
G36*
X95954468Y-95773565D02*
G01*
X95993138Y-95785296D01*
X96028777Y-95804346D01*
X96060017Y-95829983D01*
X96085654Y-95861223D01*
X96104704Y-95896862D01*
X96116435Y-95935532D01*
X96121000Y-95981888D01*
X96121000Y-97058112D01*
X96116435Y-97104468D01*
X96104704Y-97143138D01*
X96085654Y-97178777D01*
X96060017Y-97210017D01*
X96028777Y-97235654D01*
X95993138Y-97254704D01*
X95954468Y-97266435D01*
X95908112Y-97271000D01*
X95256888Y-97271000D01*
X95210532Y-97266435D01*
X95171862Y-97254704D01*
X95136223Y-97235654D01*
X95104983Y-97210017D01*
X95079346Y-97178777D01*
X95060296Y-97143138D01*
X95048565Y-97104468D01*
X95044000Y-97058112D01*
X95044000Y-95981888D01*
X95048565Y-95935532D01*
X95060296Y-95896862D01*
X95079346Y-95861223D01*
X95104983Y-95829983D01*
X95136223Y-95804346D01*
X95171862Y-95785296D01*
X95210532Y-95773565D01*
X95256888Y-95769000D01*
X95908112Y-95769000D01*
X95954468Y-95773565D01*
X95954468Y-95773565D01*
G37*
G36*
X97829468Y-95773565D02*
G01*
X97868138Y-95785296D01*
X97903777Y-95804346D01*
X97935017Y-95829983D01*
X97960654Y-95861223D01*
X97979704Y-95896862D01*
X97991435Y-95935532D01*
X97996000Y-95981888D01*
X97996000Y-97058112D01*
X97991435Y-97104468D01*
X97979704Y-97143138D01*
X97960654Y-97178777D01*
X97935017Y-97210017D01*
X97903777Y-97235654D01*
X97868138Y-97254704D01*
X97829468Y-97266435D01*
X97783112Y-97271000D01*
X97131888Y-97271000D01*
X97085532Y-97266435D01*
X97046862Y-97254704D01*
X97011223Y-97235654D01*
X96979983Y-97210017D01*
X96954346Y-97178777D01*
X96935296Y-97143138D01*
X96923565Y-97104468D01*
X96919000Y-97058112D01*
X96919000Y-95981888D01*
X96923565Y-95935532D01*
X96935296Y-95896862D01*
X96954346Y-95861223D01*
X96979983Y-95829983D01*
X97011223Y-95804346D01*
X97046862Y-95785296D01*
X97085532Y-95773565D01*
X97131888Y-95769000D01*
X97783112Y-95769000D01*
X97829468Y-95773565D01*
X97829468Y-95773565D01*
G37*
G36*
X104591000Y-97164000D02*
G01*
X103689000Y-97164000D01*
X103689000Y-96162000D01*
X104591000Y-96162000D01*
X104591000Y-97164000D01*
X104591000Y-97164000D01*
G37*
G36*
X118149468Y-94249565D02*
G01*
X118188138Y-94261296D01*
X118223777Y-94280346D01*
X118255017Y-94305983D01*
X118280654Y-94337223D01*
X118299704Y-94372862D01*
X118311435Y-94411532D01*
X118316000Y-94457888D01*
X118316000Y-95534112D01*
X118311435Y-95580468D01*
X118299704Y-95619138D01*
X118280654Y-95654777D01*
X118255017Y-95686017D01*
X118223777Y-95711654D01*
X118188138Y-95730704D01*
X118149468Y-95742435D01*
X118103112Y-95747000D01*
X117451888Y-95747000D01*
X117405532Y-95742435D01*
X117366862Y-95730704D01*
X117331223Y-95711654D01*
X117299983Y-95686017D01*
X117274346Y-95654777D01*
X117255296Y-95619138D01*
X117243565Y-95580468D01*
X117239000Y-95534112D01*
X117239000Y-94457888D01*
X117243565Y-94411532D01*
X117255296Y-94372862D01*
X117274346Y-94337223D01*
X117299983Y-94305983D01*
X117331223Y-94280346D01*
X117366862Y-94261296D01*
X117405532Y-94249565D01*
X117451888Y-94245000D01*
X118103112Y-94245000D01*
X118149468Y-94249565D01*
X118149468Y-94249565D01*
G37*
G36*
X116274468Y-94249565D02*
G01*
X116313138Y-94261296D01*
X116348777Y-94280346D01*
X116380017Y-94305983D01*
X116405654Y-94337223D01*
X116424704Y-94372862D01*
X116436435Y-94411532D01*
X116441000Y-94457888D01*
X116441000Y-95534112D01*
X116436435Y-95580468D01*
X116424704Y-95619138D01*
X116405654Y-95654777D01*
X116380017Y-95686017D01*
X116348777Y-95711654D01*
X116313138Y-95730704D01*
X116274468Y-95742435D01*
X116228112Y-95747000D01*
X115576888Y-95747000D01*
X115530532Y-95742435D01*
X115491862Y-95730704D01*
X115456223Y-95711654D01*
X115424983Y-95686017D01*
X115399346Y-95654777D01*
X115380296Y-95619138D01*
X115368565Y-95580468D01*
X115364000Y-95534112D01*
X115364000Y-94457888D01*
X115368565Y-94411532D01*
X115380296Y-94372862D01*
X115399346Y-94337223D01*
X115424983Y-94305983D01*
X115456223Y-94280346D01*
X115491862Y-94261296D01*
X115530532Y-94249565D01*
X115576888Y-94245000D01*
X116228112Y-94245000D01*
X116274468Y-94249565D01*
X116274468Y-94249565D01*
G37*
G36*
X112211000Y-95481000D02*
G01*
X111309000Y-95481000D01*
X111309000Y-94479000D01*
X112211000Y-94479000D01*
X112211000Y-95481000D01*
X112211000Y-95481000D01*
G37*
G36*
X97829468Y-93233565D02*
G01*
X97868138Y-93245296D01*
X97903777Y-93264346D01*
X97935017Y-93289983D01*
X97960654Y-93321223D01*
X97979704Y-93356862D01*
X97991435Y-93395532D01*
X97996000Y-93441888D01*
X97996000Y-94518112D01*
X97991435Y-94564468D01*
X97979704Y-94603138D01*
X97960654Y-94638777D01*
X97935017Y-94670017D01*
X97903777Y-94695654D01*
X97868138Y-94714704D01*
X97829468Y-94726435D01*
X97783112Y-94731000D01*
X97131888Y-94731000D01*
X97085532Y-94726435D01*
X97046862Y-94714704D01*
X97011223Y-94695654D01*
X96979983Y-94670017D01*
X96954346Y-94638777D01*
X96935296Y-94603138D01*
X96923565Y-94564468D01*
X96919000Y-94518112D01*
X96919000Y-93441888D01*
X96923565Y-93395532D01*
X96935296Y-93356862D01*
X96954346Y-93321223D01*
X96979983Y-93289983D01*
X97011223Y-93264346D01*
X97046862Y-93245296D01*
X97085532Y-93233565D01*
X97131888Y-93229000D01*
X97783112Y-93229000D01*
X97829468Y-93233565D01*
X97829468Y-93233565D01*
G37*
G36*
X95954468Y-93233565D02*
G01*
X95993138Y-93245296D01*
X96028777Y-93264346D01*
X96060017Y-93289983D01*
X96085654Y-93321223D01*
X96104704Y-93356862D01*
X96116435Y-93395532D01*
X96121000Y-93441888D01*
X96121000Y-94518112D01*
X96116435Y-94564468D01*
X96104704Y-94603138D01*
X96085654Y-94638777D01*
X96060017Y-94670017D01*
X96028777Y-94695654D01*
X95993138Y-94714704D01*
X95954468Y-94726435D01*
X95908112Y-94731000D01*
X95256888Y-94731000D01*
X95210532Y-94726435D01*
X95171862Y-94714704D01*
X95136223Y-94695654D01*
X95104983Y-94670017D01*
X95079346Y-94638777D01*
X95060296Y-94603138D01*
X95048565Y-94564468D01*
X95044000Y-94518112D01*
X95044000Y-93441888D01*
X95048565Y-93395532D01*
X95060296Y-93356862D01*
X95079346Y-93321223D01*
X95104983Y-93289983D01*
X95136223Y-93264346D01*
X95171862Y-93245296D01*
X95210532Y-93233565D01*
X95256888Y-93229000D01*
X95908112Y-93229000D01*
X95954468Y-93233565D01*
X95954468Y-93233565D01*
G37*
G36*
X94230781Y-93283295D02*
G01*
X94266816Y-93294227D01*
X94300024Y-93311977D01*
X94329134Y-93335866D01*
X94353023Y-93364976D01*
X94370773Y-93398184D01*
X94381705Y-93434219D01*
X94386000Y-93477831D01*
X94386000Y-94482169D01*
X94381705Y-94525781D01*
X94370773Y-94561816D01*
X94353023Y-94595024D01*
X94329134Y-94624134D01*
X94300024Y-94648023D01*
X94266816Y-94665773D01*
X94230781Y-94676705D01*
X94187169Y-94681000D01*
X93157831Y-94681000D01*
X93114219Y-94676705D01*
X93078184Y-94665773D01*
X93044976Y-94648023D01*
X93015866Y-94624134D01*
X92991977Y-94595024D01*
X92974227Y-94561816D01*
X92963295Y-94525781D01*
X92959000Y-94482169D01*
X92959000Y-93477831D01*
X92963295Y-93434219D01*
X92974227Y-93398184D01*
X92991977Y-93364976D01*
X93015866Y-93335866D01*
X93044976Y-93311977D01*
X93078184Y-93294227D01*
X93114219Y-93283295D01*
X93157831Y-93279000D01*
X94187169Y-93279000D01*
X94230781Y-93283295D01*
X94230781Y-93283295D01*
G37*
G36*
X92305781Y-93283295D02*
G01*
X92341816Y-93294227D01*
X92375024Y-93311977D01*
X92404134Y-93335866D01*
X92428023Y-93364976D01*
X92445773Y-93398184D01*
X92456705Y-93434219D01*
X92461000Y-93477831D01*
X92461000Y-94482169D01*
X92456705Y-94525781D01*
X92445773Y-94561816D01*
X92428023Y-94595024D01*
X92404134Y-94624134D01*
X92375024Y-94648023D01*
X92341816Y-94665773D01*
X92305781Y-94676705D01*
X92262169Y-94681000D01*
X91232831Y-94681000D01*
X91189219Y-94676705D01*
X91153184Y-94665773D01*
X91119976Y-94648023D01*
X91090866Y-94624134D01*
X91066977Y-94595024D01*
X91049227Y-94561816D01*
X91038295Y-94525781D01*
X91034000Y-94482169D01*
X91034000Y-93477831D01*
X91038295Y-93434219D01*
X91049227Y-93398184D01*
X91066977Y-93364976D01*
X91090866Y-93335866D01*
X91119976Y-93311977D01*
X91153184Y-93294227D01*
X91189219Y-93283295D01*
X91232831Y-93279000D01*
X92262169Y-93279000D01*
X92305781Y-93283295D01*
X92305781Y-93283295D01*
G37*
G36*
X113161000Y-93481000D02*
G01*
X112259000Y-93481000D01*
X112259000Y-92479000D01*
X113161000Y-92479000D01*
X113161000Y-93481000D01*
X113161000Y-93481000D01*
G37*
G36*
X111261000Y-93481000D02*
G01*
X110359000Y-93481000D01*
X110359000Y-92479000D01*
X111261000Y-92479000D01*
X111261000Y-93481000D01*
X111261000Y-93481000D01*
G37*
G36*
X102909468Y-90693565D02*
G01*
X102948138Y-90705296D01*
X102983777Y-90724346D01*
X103015017Y-90749983D01*
X103040654Y-90781223D01*
X103059704Y-90816862D01*
X103071435Y-90855532D01*
X103076000Y-90901888D01*
X103076000Y-91978112D01*
X103071435Y-92024468D01*
X103059704Y-92063138D01*
X103040654Y-92098777D01*
X103015017Y-92130017D01*
X102983777Y-92155654D01*
X102948138Y-92174704D01*
X102909468Y-92186435D01*
X102863112Y-92191000D01*
X102211888Y-92191000D01*
X102165532Y-92186435D01*
X102126862Y-92174704D01*
X102091223Y-92155654D01*
X102059983Y-92130017D01*
X102034346Y-92098777D01*
X102015296Y-92063138D01*
X102003565Y-92024468D01*
X101999000Y-91978112D01*
X101999000Y-90901888D01*
X102003565Y-90855532D01*
X102015296Y-90816862D01*
X102034346Y-90781223D01*
X102059983Y-90749983D01*
X102091223Y-90724346D01*
X102126862Y-90705296D01*
X102165532Y-90693565D01*
X102211888Y-90689000D01*
X102863112Y-90689000D01*
X102909468Y-90693565D01*
X102909468Y-90693565D01*
G37*
G36*
X101034468Y-90693565D02*
G01*
X101073138Y-90705296D01*
X101108777Y-90724346D01*
X101140017Y-90749983D01*
X101165654Y-90781223D01*
X101184704Y-90816862D01*
X101196435Y-90855532D01*
X101201000Y-90901888D01*
X101201000Y-91978112D01*
X101196435Y-92024468D01*
X101184704Y-92063138D01*
X101165654Y-92098777D01*
X101140017Y-92130017D01*
X101108777Y-92155654D01*
X101073138Y-92174704D01*
X101034468Y-92186435D01*
X100988112Y-92191000D01*
X100336888Y-92191000D01*
X100290532Y-92186435D01*
X100251862Y-92174704D01*
X100216223Y-92155654D01*
X100184983Y-92130017D01*
X100159346Y-92098777D01*
X100140296Y-92063138D01*
X100128565Y-92024468D01*
X100124000Y-91978112D01*
X100124000Y-90901888D01*
X100128565Y-90855532D01*
X100140296Y-90816862D01*
X100159346Y-90781223D01*
X100184983Y-90749983D01*
X100216223Y-90724346D01*
X100251862Y-90705296D01*
X100290532Y-90693565D01*
X100336888Y-90689000D01*
X100988112Y-90689000D01*
X101034468Y-90693565D01*
X101034468Y-90693565D01*
G37*
G36*
X111261000Y-90401000D02*
G01*
X110359000Y-90401000D01*
X110359000Y-89399000D01*
X111261000Y-89399000D01*
X111261000Y-90401000D01*
X111261000Y-90401000D01*
G37*
G36*
X106181000Y-90401000D02*
G01*
X105279000Y-90401000D01*
X105279000Y-89399000D01*
X106181000Y-89399000D01*
X106181000Y-90401000D01*
X106181000Y-90401000D01*
G37*
G36*
X113161000Y-90401000D02*
G01*
X112259000Y-90401000D01*
X112259000Y-89399000D01*
X113161000Y-89399000D01*
X113161000Y-90401000D01*
X113161000Y-90401000D01*
G37*
G36*
X108081000Y-90401000D02*
G01*
X107179000Y-90401000D01*
X107179000Y-89399000D01*
X108081000Y-89399000D01*
X108081000Y-90401000D01*
X108081000Y-90401000D01*
G37*
G36*
X115691000Y-90313000D02*
G01*
X114689000Y-90313000D01*
X114689000Y-89011000D01*
X115691000Y-89011000D01*
X115691000Y-90313000D01*
X115691000Y-90313000D01*
G37*
G36*
X118991000Y-90313000D02*
G01*
X117989000Y-90313000D01*
X117989000Y-89011000D01*
X118991000Y-89011000D01*
X118991000Y-90313000D01*
X118991000Y-90313000D01*
G37*
G36*
X97671000Y-89311000D02*
G01*
X91169000Y-89311000D01*
X91169000Y-83409000D01*
X97671000Y-83409000D01*
X97671000Y-89311000D01*
X97671000Y-89311000D01*
G37*
G36*
X101871000Y-89291000D02*
G01*
X99569000Y-89291000D01*
X99569000Y-87989000D01*
X101871000Y-87989000D01*
X101871000Y-89291000D01*
X101871000Y-89291000D01*
G37*
G36*
X112211000Y-88401000D02*
G01*
X111309000Y-88401000D01*
X111309000Y-87399000D01*
X112211000Y-87399000D01*
X112211000Y-88401000D01*
X112211000Y-88401000D01*
G37*
G36*
X107131000Y-88401000D02*
G01*
X106229000Y-88401000D01*
X106229000Y-87399000D01*
X107131000Y-87399000D01*
X107131000Y-88401000D01*
X107131000Y-88401000D01*
G37*
G36*
X118149468Y-85613565D02*
G01*
X118188138Y-85625296D01*
X118223777Y-85644346D01*
X118255017Y-85669983D01*
X118280654Y-85701223D01*
X118299704Y-85736862D01*
X118311435Y-85775532D01*
X118316000Y-85821888D01*
X118316000Y-86898112D01*
X118311435Y-86944468D01*
X118299704Y-86983138D01*
X118280654Y-87018777D01*
X118255017Y-87050017D01*
X118223777Y-87075654D01*
X118188138Y-87094704D01*
X118149468Y-87106435D01*
X118103112Y-87111000D01*
X117451888Y-87111000D01*
X117405532Y-87106435D01*
X117366862Y-87094704D01*
X117331223Y-87075654D01*
X117299983Y-87050017D01*
X117274346Y-87018777D01*
X117255296Y-86983138D01*
X117243565Y-86944468D01*
X117239000Y-86898112D01*
X117239000Y-85821888D01*
X117243565Y-85775532D01*
X117255296Y-85736862D01*
X117274346Y-85701223D01*
X117299983Y-85669983D01*
X117331223Y-85644346D01*
X117366862Y-85625296D01*
X117405532Y-85613565D01*
X117451888Y-85609000D01*
X118103112Y-85609000D01*
X118149468Y-85613565D01*
X118149468Y-85613565D01*
G37*
G36*
X116274468Y-85613565D02*
G01*
X116313138Y-85625296D01*
X116348777Y-85644346D01*
X116380017Y-85669983D01*
X116405654Y-85701223D01*
X116424704Y-85736862D01*
X116436435Y-85775532D01*
X116441000Y-85821888D01*
X116441000Y-86898112D01*
X116436435Y-86944468D01*
X116424704Y-86983138D01*
X116405654Y-87018777D01*
X116380017Y-87050017D01*
X116348777Y-87075654D01*
X116313138Y-87094704D01*
X116274468Y-87106435D01*
X116228112Y-87111000D01*
X115576888Y-87111000D01*
X115530532Y-87106435D01*
X115491862Y-87094704D01*
X115456223Y-87075654D01*
X115424983Y-87050017D01*
X115399346Y-87018777D01*
X115380296Y-86983138D01*
X115368565Y-86944468D01*
X115364000Y-86898112D01*
X115364000Y-85821888D01*
X115368565Y-85775532D01*
X115380296Y-85736862D01*
X115399346Y-85701223D01*
X115424983Y-85669983D01*
X115456223Y-85644346D01*
X115491862Y-85625296D01*
X115530532Y-85613565D01*
X115576888Y-85609000D01*
X116228112Y-85609000D01*
X116274468Y-85613565D01*
X116274468Y-85613565D01*
G37*
G36*
X101871000Y-87011000D02*
G01*
X99569000Y-87011000D01*
X99569000Y-85709000D01*
X101871000Y-85709000D01*
X101871000Y-87011000D01*
X101871000Y-87011000D01*
G37*
G36*
X132005000Y-85475000D02*
G01*
X130403000Y-85475000D01*
X130403000Y-82673000D01*
X132005000Y-82673000D01*
X132005000Y-85475000D01*
X132005000Y-85475000D01*
G37*
G36*
X136805000Y-85475000D02*
G01*
X135203000Y-85475000D01*
X135203000Y-82673000D01*
X136805000Y-82673000D01*
X136805000Y-85475000D01*
X136805000Y-85475000D01*
G37*
G36*
X155601000Y-85221000D02*
G01*
X153999000Y-85221000D01*
X153999000Y-82419000D01*
X155601000Y-82419000D01*
X155601000Y-85221000D01*
X155601000Y-85221000D01*
G37*
G36*
X150801000Y-85221000D02*
G01*
X149199000Y-85221000D01*
X149199000Y-82419000D01*
X150801000Y-82419000D01*
X150801000Y-85221000D01*
X150801000Y-85221000D01*
G37*
G36*
X101871000Y-84731000D02*
G01*
X99569000Y-84731000D01*
X99569000Y-83429000D01*
X101871000Y-83429000D01*
X101871000Y-84731000D01*
X101871000Y-84731000D01*
G37*
G36*
X140150468Y-83073565D02*
G01*
X140189138Y-83085296D01*
X140224777Y-83104346D01*
X140256017Y-83129983D01*
X140281654Y-83161223D01*
X140300704Y-83196862D01*
X140312435Y-83235532D01*
X140317000Y-83281888D01*
X140317000Y-84358112D01*
X140312435Y-84404468D01*
X140300704Y-84443138D01*
X140281654Y-84478777D01*
X140256017Y-84510017D01*
X140224777Y-84535654D01*
X140189138Y-84554704D01*
X140150468Y-84566435D01*
X140104112Y-84571000D01*
X139452888Y-84571000D01*
X139406532Y-84566435D01*
X139367862Y-84554704D01*
X139332223Y-84535654D01*
X139300983Y-84510017D01*
X139275346Y-84478777D01*
X139256296Y-84443138D01*
X139244565Y-84404468D01*
X139240000Y-84358112D01*
X139240000Y-83281888D01*
X139244565Y-83235532D01*
X139256296Y-83196862D01*
X139275346Y-83161223D01*
X139300983Y-83129983D01*
X139332223Y-83104346D01*
X139367862Y-83085296D01*
X139406532Y-83073565D01*
X139452888Y-83069000D01*
X140104112Y-83069000D01*
X140150468Y-83073565D01*
X140150468Y-83073565D01*
G37*
G36*
X142025468Y-83073565D02*
G01*
X142064138Y-83085296D01*
X142099777Y-83104346D01*
X142131017Y-83129983D01*
X142156654Y-83161223D01*
X142175704Y-83196862D01*
X142187435Y-83235532D01*
X142192000Y-83281888D01*
X142192000Y-84358112D01*
X142187435Y-84404468D01*
X142175704Y-84443138D01*
X142156654Y-84478777D01*
X142131017Y-84510017D01*
X142099777Y-84535654D01*
X142064138Y-84554704D01*
X142025468Y-84566435D01*
X141979112Y-84571000D01*
X141327888Y-84571000D01*
X141281532Y-84566435D01*
X141242862Y-84554704D01*
X141207223Y-84535654D01*
X141175983Y-84510017D01*
X141150346Y-84478777D01*
X141131296Y-84443138D01*
X141119565Y-84404468D01*
X141115000Y-84358112D01*
X141115000Y-83281888D01*
X141119565Y-83235532D01*
X141131296Y-83196862D01*
X141150346Y-83161223D01*
X141175983Y-83129983D01*
X141207223Y-83104346D01*
X141242862Y-83085296D01*
X141281532Y-83073565D01*
X141327888Y-83069000D01*
X141979112Y-83069000D01*
X142025468Y-83073565D01*
X142025468Y-83073565D01*
G37*
G36*
X140105000Y-78751000D02*
G01*
X135003000Y-78751000D01*
X135003000Y-73649000D01*
X140105000Y-73649000D01*
X140105000Y-78751000D01*
X140105000Y-78751000D01*
G37*
G36*
X132205000Y-78751000D02*
G01*
X127103000Y-78751000D01*
X127103000Y-73649000D01*
X132205000Y-73649000D01*
X132205000Y-78751000D01*
X132205000Y-78751000D01*
G37*
G36*
X150366000Y-78751000D02*
G01*
X145264000Y-78751000D01*
X145264000Y-73649000D01*
X150366000Y-73649000D01*
X150366000Y-78751000D01*
X150366000Y-78751000D01*
G37*
G36*
X158266000Y-78751000D02*
G01*
X153164000Y-78751000D01*
X153164000Y-73649000D01*
X158266000Y-73649000D01*
X158266000Y-78751000D01*
X158266000Y-78751000D01*
G37*
G36*
X104442585Y-74678802D02*
G01*
X104592410Y-74708604D01*
X104874674Y-74825521D01*
X105128705Y-74995259D01*
X105344741Y-75211295D01*
X105514479Y-75465326D01*
X105631396Y-75747590D01*
X105691000Y-76047240D01*
X105691000Y-76352760D01*
X105631396Y-76652410D01*
X105514479Y-76934674D01*
X105344741Y-77188705D01*
X105128705Y-77404741D01*
X104874674Y-77574479D01*
X104592410Y-77691396D01*
X104442585Y-77721198D01*
X104292761Y-77751000D01*
X103987239Y-77751000D01*
X103837415Y-77721198D01*
X103687590Y-77691396D01*
X103405326Y-77574479D01*
X103151295Y-77404741D01*
X102935259Y-77188705D01*
X102765521Y-76934674D01*
X102648604Y-76652410D01*
X102589000Y-76352760D01*
X102589000Y-76047240D01*
X102648604Y-75747590D01*
X102765521Y-75465326D01*
X102935259Y-75211295D01*
X103151295Y-74995259D01*
X103405326Y-74825521D01*
X103687590Y-74708604D01*
X103837415Y-74678802D01*
X103987239Y-74649000D01*
X104292761Y-74649000D01*
X104442585Y-74678802D01*
X104442585Y-74678802D01*
G37*
G36*
X119682585Y-74678802D02*
G01*
X119832410Y-74708604D01*
X120114674Y-74825521D01*
X120368705Y-74995259D01*
X120584741Y-75211295D01*
X120754479Y-75465326D01*
X120871396Y-75747590D01*
X120931000Y-76047240D01*
X120931000Y-76352760D01*
X120871396Y-76652410D01*
X120754479Y-76934674D01*
X120584741Y-77188705D01*
X120368705Y-77404741D01*
X120114674Y-77574479D01*
X119832410Y-77691396D01*
X119682585Y-77721198D01*
X119532761Y-77751000D01*
X119227239Y-77751000D01*
X119077415Y-77721198D01*
X118927590Y-77691396D01*
X118645326Y-77574479D01*
X118391295Y-77404741D01*
X118175259Y-77188705D01*
X118005521Y-76934674D01*
X117888604Y-76652410D01*
X117829000Y-76352760D01*
X117829000Y-76047240D01*
X117888604Y-75747590D01*
X118005521Y-75465326D01*
X118175259Y-75211295D01*
X118391295Y-74995259D01*
X118645326Y-74825521D01*
X118927590Y-74708604D01*
X119077415Y-74678802D01*
X119227239Y-74649000D01*
X119532761Y-74649000D01*
X119682585Y-74678802D01*
X119682585Y-74678802D01*
G37*
G36*
X114602585Y-74678802D02*
G01*
X114752410Y-74708604D01*
X115034674Y-74825521D01*
X115288705Y-74995259D01*
X115504741Y-75211295D01*
X115674479Y-75465326D01*
X115791396Y-75747590D01*
X115851000Y-76047240D01*
X115851000Y-76352760D01*
X115791396Y-76652410D01*
X115674479Y-76934674D01*
X115504741Y-77188705D01*
X115288705Y-77404741D01*
X115034674Y-77574479D01*
X114752410Y-77691396D01*
X114602585Y-77721198D01*
X114452761Y-77751000D01*
X114147239Y-77751000D01*
X113997415Y-77721198D01*
X113847590Y-77691396D01*
X113565326Y-77574479D01*
X113311295Y-77404741D01*
X113095259Y-77188705D01*
X112925521Y-76934674D01*
X112808604Y-76652410D01*
X112749000Y-76352760D01*
X112749000Y-76047240D01*
X112808604Y-75747590D01*
X112925521Y-75465326D01*
X113095259Y-75211295D01*
X113311295Y-74995259D01*
X113565326Y-74825521D01*
X113847590Y-74708604D01*
X113997415Y-74678802D01*
X114147239Y-74649000D01*
X114452761Y-74649000D01*
X114602585Y-74678802D01*
X114602585Y-74678802D01*
G37*
G36*
X100611000Y-77751000D02*
G01*
X97509000Y-77751000D01*
X97509000Y-74649000D01*
X100611000Y-74649000D01*
X100611000Y-77751000D01*
X100611000Y-77751000D01*
G37*
G36*
X109522585Y-74678802D02*
G01*
X109672410Y-74708604D01*
X109954674Y-74825521D01*
X110208705Y-74995259D01*
X110424741Y-75211295D01*
X110594479Y-75465326D01*
X110711396Y-75747590D01*
X110771000Y-76047240D01*
X110771000Y-76352760D01*
X110711396Y-76652410D01*
X110594479Y-76934674D01*
X110424741Y-77188705D01*
X110208705Y-77404741D01*
X109954674Y-77574479D01*
X109672410Y-77691396D01*
X109522585Y-77721198D01*
X109372761Y-77751000D01*
X109067239Y-77751000D01*
X108917415Y-77721198D01*
X108767590Y-77691396D01*
X108485326Y-77574479D01*
X108231295Y-77404741D01*
X108015259Y-77188705D01*
X107845521Y-76934674D01*
X107728604Y-76652410D01*
X107669000Y-76352760D01*
X107669000Y-76047240D01*
X107728604Y-75747590D01*
X107845521Y-75465326D01*
X108015259Y-75211295D01*
X108231295Y-74995259D01*
X108485326Y-74825521D01*
X108767590Y-74708604D01*
X108917415Y-74678802D01*
X109067239Y-74649000D01*
X109372761Y-74649000D01*
X109522585Y-74678802D01*
X109522585Y-74678802D01*
G37*
G36*
X92375256Y-74391298D02*
G01*
X92481579Y-74412447D01*
X92782042Y-74536903D01*
X93052451Y-74717585D01*
X93282415Y-74947549D01*
X93463097Y-75217958D01*
X93463098Y-75217960D01*
X93587553Y-75518422D01*
X93651000Y-75837389D01*
X93651000Y-76162611D01*
X93608702Y-76375256D01*
X93587553Y-76481579D01*
X93463097Y-76782042D01*
X93282415Y-77052451D01*
X93052451Y-77282415D01*
X92782042Y-77463097D01*
X92481579Y-77587553D01*
X92375256Y-77608702D01*
X92162611Y-77651000D01*
X91837389Y-77651000D01*
X91624744Y-77608702D01*
X91518421Y-77587553D01*
X91217958Y-77463097D01*
X90947549Y-77282415D01*
X90717585Y-77052451D01*
X90536903Y-76782042D01*
X90412447Y-76481579D01*
X90391298Y-76375256D01*
X90349000Y-76162611D01*
X90349000Y-75837389D01*
X90412447Y-75518422D01*
X90536902Y-75217960D01*
X90536903Y-75217958D01*
X90717585Y-74947549D01*
X90947549Y-74717585D01*
X91217958Y-74536903D01*
X91518421Y-74412447D01*
X91624744Y-74391298D01*
X91837389Y-74349000D01*
X92162611Y-74349000D01*
X92375256Y-74391298D01*
X92375256Y-74391298D01*
G37*
G36*
X164375256Y-74391298D02*
G01*
X164481579Y-74412447D01*
X164782042Y-74536903D01*
X165052451Y-74717585D01*
X165282415Y-74947549D01*
X165463097Y-75217958D01*
X165463098Y-75217960D01*
X165587553Y-75518422D01*
X165651000Y-75837389D01*
X165651000Y-76162611D01*
X165608702Y-76375256D01*
X165587553Y-76481579D01*
X165463097Y-76782042D01*
X165282415Y-77052451D01*
X165052451Y-77282415D01*
X164782042Y-77463097D01*
X164481579Y-77587553D01*
X164375256Y-77608702D01*
X164162611Y-77651000D01*
X163837389Y-77651000D01*
X163624744Y-77608702D01*
X163518421Y-77587553D01*
X163217958Y-77463097D01*
X162947549Y-77282415D01*
X162717585Y-77052451D01*
X162536903Y-76782042D01*
X162412447Y-76481579D01*
X162391298Y-76375256D01*
X162349000Y-76162611D01*
X162349000Y-75837389D01*
X162412447Y-75518422D01*
X162536902Y-75217960D01*
X162536903Y-75217958D01*
X162717585Y-74947549D01*
X162947549Y-74717585D01*
X163217958Y-74536903D01*
X163518421Y-74412447D01*
X163624744Y-74391298D01*
X163837389Y-74349000D01*
X164162611Y-74349000D01*
X164375256Y-74391298D01*
X164375256Y-74391298D01*
G37*
M02*
