G04 #@! TF.GenerationSoftware,KiCad,Pcbnew,(5.1.2)-2*
G04 #@! TF.CreationDate,2019-08-17T13:58:46+01:00*
G04 #@! TF.ProjectId,Sequencer,53657175-656e-4636-9572-2e6b69636164,rev?*
G04 #@! TF.SameCoordinates,Original*
G04 #@! TF.FileFunction,Copper,L2,Bot*
G04 #@! TF.FilePolarity,Positive*
%FSLAX46Y46*%
G04 Gerber Fmt 4.6, Leading zero omitted, Abs format (unit mm)*
G04 Created by KiCad (PCBNEW (5.1.2)-2) date 2019-08-17 13:58:46*
%MOMM*%
%LPD*%
G04 APERTURE LIST*
%ADD10R,5.000000X5.000000*%
%ADD11O,1.905000X2.000000*%
%ADD12R,1.905000X2.000000*%
%ADD13C,3.000000*%
%ADD14R,3.000000X3.000000*%
%ADD15C,6.000000*%
%ADD16C,0.800000*%
%ADD17C,1.000000*%
%ADD18C,0.254000*%
G04 APERTURE END LIST*
D10*
X137554000Y-76200000D03*
X129654000Y-76200000D03*
X147815000Y-76200000D03*
X155715000Y-76200000D03*
D11*
X139700000Y-97790000D03*
X142240000Y-97790000D03*
D12*
X144780000Y-97790000D03*
D13*
X104140000Y-76200000D03*
X109220000Y-76200000D03*
D14*
X99060000Y-76200000D03*
D13*
X114300000Y-76200000D03*
X119380000Y-76200000D03*
D15*
X129540000Y-101600000D03*
X154940000Y-101600000D03*
D16*
X101854000Y-83693000D03*
X107696000Y-89916000D03*
X110871000Y-92964000D03*
X110871000Y-92964000D03*
X108204000Y-103759000D03*
X117983000Y-99314000D03*
X117983000Y-98552000D03*
X100076000Y-83693000D03*
X100076000Y-84582000D03*
X100965000Y-84582000D03*
X101854000Y-84582000D03*
X100965000Y-83693000D03*
X141732000Y-83439000D03*
X117856000Y-86360000D03*
X105283000Y-98679000D03*
X108204000Y-104521000D03*
X102537500Y-91440000D03*
X103190000Y-98663000D03*
X131318000Y-85090000D03*
X149860000Y-84836000D03*
X149860000Y-83820000D03*
X149860000Y-82804000D03*
X131318000Y-83058000D03*
X131318000Y-84074000D03*
X141732000Y-84201000D03*
X118490000Y-89662000D03*
X110998000Y-89662000D03*
X100076000Y-99060000D03*
X106553000Y-96901000D03*
D17*
X102537500Y-92240000D02*
X103251000Y-92953500D01*
X102537500Y-91440000D02*
X102537500Y-92240000D01*
X103251000Y-92953500D02*
X103251000Y-98602000D01*
X103251000Y-98602000D02*
X103190000Y-98663000D01*
X118490000Y-89662000D02*
X110998000Y-89662000D01*
X104140000Y-76200000D02*
X104140000Y-78321320D01*
X104140000Y-78321320D02*
X104140000Y-90170000D01*
X104140000Y-90170000D02*
X106553000Y-92583000D01*
X106553000Y-92583000D02*
X106553000Y-96901000D01*
X106553000Y-96901000D02*
X106553000Y-96901000D01*
X100076000Y-99441000D02*
X100076000Y-99060000D01*
X107569000Y-106934000D02*
X100076000Y-99441000D01*
X142748000Y-106934000D02*
X107569000Y-106934000D01*
X144780000Y-97790000D02*
X144780000Y-105791000D01*
X144780000Y-105791000D02*
X142748000Y-106934000D01*
D18*
G36*
X167340000Y-108340000D02*
G01*
X88660000Y-108340000D01*
X88660000Y-103779872D01*
X89765000Y-103779872D01*
X89765000Y-104220128D01*
X89850890Y-104651925D01*
X90019369Y-105058669D01*
X90263962Y-105424729D01*
X90575271Y-105736038D01*
X90941331Y-105980631D01*
X91348075Y-106149110D01*
X91779872Y-106235000D01*
X92220128Y-106235000D01*
X92651925Y-106149110D01*
X93058669Y-105980631D01*
X93424729Y-105736038D01*
X93736038Y-105424729D01*
X93980631Y-105058669D01*
X94149110Y-104651925D01*
X94235000Y-104220128D01*
X94235000Y-103779872D01*
X94149110Y-103348075D01*
X93980631Y-102941331D01*
X93736038Y-102575271D01*
X93424729Y-102263962D01*
X93058669Y-102019369D01*
X92651925Y-101850890D01*
X92220128Y-101765000D01*
X91779872Y-101765000D01*
X91348075Y-101850890D01*
X90941331Y-102019369D01*
X90575271Y-102263962D01*
X90263962Y-102575271D01*
X90019369Y-102941331D01*
X89850890Y-103348075D01*
X89765000Y-103779872D01*
X88660000Y-103779872D01*
X88660000Y-99441000D01*
X98935509Y-99441000D01*
X98941000Y-99496751D01*
X98957423Y-99663498D01*
X99022324Y-99877446D01*
X99127716Y-100074623D01*
X99269551Y-100247449D01*
X99312865Y-100282996D01*
X106727009Y-107697141D01*
X106762551Y-107740449D01*
X106935377Y-107882284D01*
X107132553Y-107987676D01*
X107279496Y-108032251D01*
X107346500Y-108052577D01*
X107367493Y-108054644D01*
X107513248Y-108069000D01*
X107513255Y-108069000D01*
X107568999Y-108074490D01*
X107624743Y-108069000D01*
X142648536Y-108069000D01*
X142660657Y-108071141D01*
X142760150Y-108069000D01*
X142803752Y-108069000D01*
X142815942Y-108067799D01*
X142884179Y-108066331D01*
X142926919Y-108056869D01*
X142970499Y-108052577D01*
X143035832Y-108032758D01*
X143102470Y-108018006D01*
X143142546Y-108000387D01*
X143184447Y-107987676D01*
X143244653Y-107955496D01*
X143255854Y-107950571D01*
X143293813Y-107929219D01*
X143381623Y-107882284D01*
X143391143Y-107874471D01*
X145325847Y-106786201D01*
X145413623Y-106739284D01*
X145466391Y-106695978D01*
X145522319Y-106656842D01*
X145552603Y-106625225D01*
X145586449Y-106597449D01*
X145629758Y-106544676D01*
X145676972Y-106495386D01*
X145700505Y-106458472D01*
X145728284Y-106424623D01*
X145760462Y-106364421D01*
X145797157Y-106306861D01*
X145813039Y-106266057D01*
X145833676Y-106227447D01*
X145853492Y-106162122D01*
X145878251Y-106098511D01*
X145885866Y-106055402D01*
X145898577Y-106013499D01*
X145905269Y-105945556D01*
X145917141Y-105878344D01*
X145915000Y-105778851D01*
X145915000Y-101241984D01*
X151305000Y-101241984D01*
X151305000Y-101958016D01*
X151444691Y-102660290D01*
X151718705Y-103321818D01*
X152116511Y-103917177D01*
X152622823Y-104423489D01*
X153218182Y-104821295D01*
X153879710Y-105095309D01*
X154581984Y-105235000D01*
X155298016Y-105235000D01*
X156000290Y-105095309D01*
X156661818Y-104821295D01*
X157257177Y-104423489D01*
X157763489Y-103917177D01*
X157855233Y-103779872D01*
X161765000Y-103779872D01*
X161765000Y-104220128D01*
X161850890Y-104651925D01*
X162019369Y-105058669D01*
X162263962Y-105424729D01*
X162575271Y-105736038D01*
X162941331Y-105980631D01*
X163348075Y-106149110D01*
X163779872Y-106235000D01*
X164220128Y-106235000D01*
X164651925Y-106149110D01*
X165058669Y-105980631D01*
X165424729Y-105736038D01*
X165736038Y-105424729D01*
X165980631Y-105058669D01*
X166149110Y-104651925D01*
X166235000Y-104220128D01*
X166235000Y-103779872D01*
X166149110Y-103348075D01*
X165980631Y-102941331D01*
X165736038Y-102575271D01*
X165424729Y-102263962D01*
X165058669Y-102019369D01*
X164651925Y-101850890D01*
X164220128Y-101765000D01*
X163779872Y-101765000D01*
X163348075Y-101850890D01*
X162941331Y-102019369D01*
X162575271Y-102263962D01*
X162263962Y-102575271D01*
X162019369Y-102941331D01*
X161850890Y-103348075D01*
X161765000Y-103779872D01*
X157855233Y-103779872D01*
X158161295Y-103321818D01*
X158435309Y-102660290D01*
X158575000Y-101958016D01*
X158575000Y-101241984D01*
X158435309Y-100539710D01*
X158161295Y-99878182D01*
X157763489Y-99282823D01*
X157257177Y-98776511D01*
X156661818Y-98378705D01*
X156000290Y-98104691D01*
X155298016Y-97965000D01*
X154581984Y-97965000D01*
X153879710Y-98104691D01*
X153218182Y-98378705D01*
X152622823Y-98776511D01*
X152116511Y-99282823D01*
X151718705Y-99878182D01*
X151444691Y-100539710D01*
X151305000Y-101241984D01*
X145915000Y-101241984D01*
X145915000Y-99398212D01*
X145976680Y-99379502D01*
X146086994Y-99320537D01*
X146183685Y-99241185D01*
X146263037Y-99144494D01*
X146322002Y-99034180D01*
X146358312Y-98914482D01*
X146370572Y-98790000D01*
X146370572Y-96790000D01*
X146358312Y-96665518D01*
X146322002Y-96545820D01*
X146263037Y-96435506D01*
X146183685Y-96338815D01*
X146086994Y-96259463D01*
X145976680Y-96200498D01*
X145856982Y-96164188D01*
X145732500Y-96151928D01*
X143827500Y-96151928D01*
X143703018Y-96164188D01*
X143583320Y-96200498D01*
X143473006Y-96259463D01*
X143376315Y-96338815D01*
X143296963Y-96435506D01*
X143252095Y-96519446D01*
X143126235Y-96416155D01*
X142850449Y-96268745D01*
X142551204Y-96177970D01*
X142240000Y-96147319D01*
X141928797Y-96177970D01*
X141629552Y-96268745D01*
X141353766Y-96416155D01*
X141112037Y-96614537D01*
X140970000Y-96787609D01*
X140827963Y-96614537D01*
X140586235Y-96416155D01*
X140310449Y-96268745D01*
X140011204Y-96177970D01*
X139700000Y-96147319D01*
X139388797Y-96177970D01*
X139089552Y-96268745D01*
X138813766Y-96416155D01*
X138572037Y-96614537D01*
X138373655Y-96856265D01*
X138226245Y-97132051D01*
X138135470Y-97431296D01*
X138112500Y-97664514D01*
X138112500Y-97915485D01*
X138135470Y-98148703D01*
X138226245Y-98447948D01*
X138373655Y-98723734D01*
X138572037Y-98965463D01*
X138813765Y-99163845D01*
X139089551Y-99311255D01*
X139388796Y-99402030D01*
X139700000Y-99432681D01*
X140011203Y-99402030D01*
X140310448Y-99311255D01*
X140586234Y-99163845D01*
X140827963Y-98965463D01*
X140970000Y-98792391D01*
X141112037Y-98965463D01*
X141353765Y-99163845D01*
X141629551Y-99311255D01*
X141928796Y-99402030D01*
X142240000Y-99432681D01*
X142551203Y-99402030D01*
X142850448Y-99311255D01*
X143126234Y-99163845D01*
X143252095Y-99060553D01*
X143296963Y-99144494D01*
X143376315Y-99241185D01*
X143473006Y-99320537D01*
X143583320Y-99379502D01*
X143645000Y-99398212D01*
X143645001Y-105127198D01*
X142450686Y-105799000D01*
X108039132Y-105799000D01*
X103482116Y-101241984D01*
X125905000Y-101241984D01*
X125905000Y-101958016D01*
X126044691Y-102660290D01*
X126318705Y-103321818D01*
X126716511Y-103917177D01*
X127222823Y-104423489D01*
X127818182Y-104821295D01*
X128479710Y-105095309D01*
X129181984Y-105235000D01*
X129898016Y-105235000D01*
X130600290Y-105095309D01*
X131261818Y-104821295D01*
X131857177Y-104423489D01*
X132363489Y-103917177D01*
X132761295Y-103321818D01*
X133035309Y-102660290D01*
X133175000Y-101958016D01*
X133175000Y-101241984D01*
X133035309Y-100539710D01*
X132761295Y-99878182D01*
X132363489Y-99282823D01*
X131857177Y-98776511D01*
X131261818Y-98378705D01*
X130600290Y-98104691D01*
X129898016Y-97965000D01*
X129181984Y-97965000D01*
X128479710Y-98104691D01*
X127818182Y-98378705D01*
X127222823Y-98776511D01*
X126716511Y-99282823D01*
X126318705Y-99878182D01*
X126044691Y-100539710D01*
X125905000Y-101241984D01*
X103482116Y-101241984D01*
X101207353Y-98967222D01*
X101194577Y-98837502D01*
X101129676Y-98623554D01*
X101024284Y-98426377D01*
X100882449Y-98253551D01*
X100709623Y-98111716D01*
X100512447Y-98006324D01*
X100298499Y-97941423D01*
X100076000Y-97919509D01*
X99853502Y-97941423D01*
X99639554Y-98006324D01*
X99442378Y-98111716D01*
X99269552Y-98253551D01*
X99127717Y-98426377D01*
X99022324Y-98623553D01*
X98957423Y-98837501D01*
X98941000Y-99004248D01*
X98941000Y-99385249D01*
X98935509Y-99441000D01*
X88660000Y-99441000D01*
X88660000Y-92240000D01*
X101397009Y-92240000D01*
X101402500Y-92295751D01*
X101402500Y-92295752D01*
X101418923Y-92462499D01*
X101483824Y-92676447D01*
X101589217Y-92873623D01*
X101731052Y-93046449D01*
X101774360Y-93081991D01*
X102116000Y-93423631D01*
X102116001Y-98293550D01*
X102071423Y-98440502D01*
X102049509Y-98663000D01*
X102071423Y-98885498D01*
X102136324Y-99099446D01*
X102241717Y-99296622D01*
X102383552Y-99469448D01*
X102556378Y-99611283D01*
X102753554Y-99716676D01*
X102967502Y-99781577D01*
X103190000Y-99803491D01*
X103412498Y-99781577D01*
X103626446Y-99716676D01*
X103823622Y-99611283D01*
X103953143Y-99504988D01*
X104014135Y-99443996D01*
X104057449Y-99408449D01*
X104199284Y-99235623D01*
X104304676Y-99038447D01*
X104369577Y-98824499D01*
X104386000Y-98657752D01*
X104391491Y-98602001D01*
X104386000Y-98546249D01*
X104386000Y-93009241D01*
X104391490Y-92953499D01*
X104386000Y-92897757D01*
X104386000Y-92897748D01*
X104369577Y-92731001D01*
X104304676Y-92517053D01*
X104199284Y-92319877D01*
X104057449Y-92147051D01*
X104014135Y-92111504D01*
X103672500Y-91769869D01*
X103672500Y-91384248D01*
X103664130Y-91299261D01*
X105418000Y-93053132D01*
X105418001Y-96845238D01*
X105412509Y-96901000D01*
X105434423Y-97123499D01*
X105499324Y-97337447D01*
X105604716Y-97534623D01*
X105746551Y-97707449D01*
X105919377Y-97849284D01*
X106116553Y-97954676D01*
X106330501Y-98019577D01*
X106497248Y-98036000D01*
X106497249Y-98036000D01*
X106553000Y-98041491D01*
X106775499Y-98019577D01*
X106989447Y-97954676D01*
X107186623Y-97849284D01*
X107359449Y-97707449D01*
X107501284Y-97534623D01*
X107606676Y-97337447D01*
X107671577Y-97123499D01*
X107688000Y-96956752D01*
X107693491Y-96901000D01*
X107688000Y-96845248D01*
X107688000Y-92638741D01*
X107693490Y-92582999D01*
X107688000Y-92527257D01*
X107688000Y-92527248D01*
X107671577Y-92360501D01*
X107606676Y-92146553D01*
X107501284Y-91949377D01*
X107359449Y-91776551D01*
X107316141Y-91741009D01*
X105275000Y-89699869D01*
X105275000Y-89662000D01*
X109857509Y-89662000D01*
X109879423Y-89884499D01*
X109944324Y-90098447D01*
X110049716Y-90295623D01*
X110191551Y-90468449D01*
X110364377Y-90610284D01*
X110561553Y-90715676D01*
X110775501Y-90780577D01*
X110942248Y-90797000D01*
X118545752Y-90797000D01*
X118712499Y-90780577D01*
X118926447Y-90715676D01*
X119123623Y-90610284D01*
X119296449Y-90468449D01*
X119438284Y-90295623D01*
X119543676Y-90098447D01*
X119608577Y-89884499D01*
X119630491Y-89662000D01*
X119608577Y-89439501D01*
X119543676Y-89225553D01*
X119438284Y-89028377D01*
X119296449Y-88855551D01*
X119123623Y-88713716D01*
X118926447Y-88608324D01*
X118712499Y-88543423D01*
X118545752Y-88527000D01*
X110942248Y-88527000D01*
X110775501Y-88543423D01*
X110561553Y-88608324D01*
X110364377Y-88713716D01*
X110191551Y-88855551D01*
X110049716Y-89028377D01*
X109944324Y-89225553D01*
X109879423Y-89439501D01*
X109857509Y-89662000D01*
X105275000Y-89662000D01*
X105275000Y-78700000D01*
X126515928Y-78700000D01*
X126528188Y-78824482D01*
X126564498Y-78944180D01*
X126623463Y-79054494D01*
X126702815Y-79151185D01*
X126799506Y-79230537D01*
X126909820Y-79289502D01*
X127029518Y-79325812D01*
X127154000Y-79338072D01*
X129368250Y-79335000D01*
X129527000Y-79176250D01*
X129527000Y-76327000D01*
X129781000Y-76327000D01*
X129781000Y-79176250D01*
X129939750Y-79335000D01*
X132154000Y-79338072D01*
X132278482Y-79325812D01*
X132398180Y-79289502D01*
X132508494Y-79230537D01*
X132605185Y-79151185D01*
X132684537Y-79054494D01*
X132743502Y-78944180D01*
X132779812Y-78824482D01*
X132792072Y-78700000D01*
X132789000Y-76485750D01*
X132630250Y-76327000D01*
X129781000Y-76327000D01*
X129527000Y-76327000D01*
X126677750Y-76327000D01*
X126519000Y-76485750D01*
X126515928Y-78700000D01*
X105275000Y-78700000D01*
X105275000Y-78009360D01*
X105500983Y-77858363D01*
X105798363Y-77560983D01*
X106032012Y-77211302D01*
X106192953Y-76822756D01*
X106275000Y-76410279D01*
X106275000Y-75989721D01*
X107085000Y-75989721D01*
X107085000Y-76410279D01*
X107167047Y-76822756D01*
X107327988Y-77211302D01*
X107561637Y-77560983D01*
X107859017Y-77858363D01*
X108208698Y-78092012D01*
X108597244Y-78252953D01*
X109009721Y-78335000D01*
X109430279Y-78335000D01*
X109842756Y-78252953D01*
X110231302Y-78092012D01*
X110580983Y-77858363D01*
X110878363Y-77560983D01*
X111112012Y-77211302D01*
X111272953Y-76822756D01*
X111355000Y-76410279D01*
X111355000Y-75989721D01*
X112165000Y-75989721D01*
X112165000Y-76410279D01*
X112247047Y-76822756D01*
X112407988Y-77211302D01*
X112641637Y-77560983D01*
X112939017Y-77858363D01*
X113288698Y-78092012D01*
X113677244Y-78252953D01*
X114089721Y-78335000D01*
X114510279Y-78335000D01*
X114922756Y-78252953D01*
X115311302Y-78092012D01*
X115660983Y-77858363D01*
X115827693Y-77691653D01*
X118067952Y-77691653D01*
X118223962Y-78007214D01*
X118598745Y-78198020D01*
X119003551Y-78312044D01*
X119422824Y-78344902D01*
X119840451Y-78295334D01*
X120240383Y-78165243D01*
X120536038Y-78007214D01*
X120692048Y-77691653D01*
X119380000Y-76379605D01*
X118067952Y-77691653D01*
X115827693Y-77691653D01*
X115958363Y-77560983D01*
X116192012Y-77211302D01*
X116352953Y-76822756D01*
X116435000Y-76410279D01*
X116435000Y-76242824D01*
X117235098Y-76242824D01*
X117284666Y-76660451D01*
X117414757Y-77060383D01*
X117572786Y-77356038D01*
X117888347Y-77512048D01*
X119200395Y-76200000D01*
X119559605Y-76200000D01*
X120871653Y-77512048D01*
X121187214Y-77356038D01*
X121378020Y-76981255D01*
X121492044Y-76576449D01*
X121524902Y-76157176D01*
X121475334Y-75739549D01*
X121345243Y-75339617D01*
X121187214Y-75043962D01*
X120871653Y-74887952D01*
X119559605Y-76200000D01*
X119200395Y-76200000D01*
X117888347Y-74887952D01*
X117572786Y-75043962D01*
X117381980Y-75418745D01*
X117267956Y-75823551D01*
X117235098Y-76242824D01*
X116435000Y-76242824D01*
X116435000Y-75989721D01*
X116352953Y-75577244D01*
X116192012Y-75188698D01*
X115958363Y-74839017D01*
X115827693Y-74708347D01*
X118067952Y-74708347D01*
X119380000Y-76020395D01*
X120692048Y-74708347D01*
X120536038Y-74392786D01*
X120161255Y-74201980D01*
X119756449Y-74087956D01*
X119337176Y-74055098D01*
X118919549Y-74104666D01*
X118519617Y-74234757D01*
X118223962Y-74392786D01*
X118067952Y-74708347D01*
X115827693Y-74708347D01*
X115660983Y-74541637D01*
X115311302Y-74307988D01*
X114922756Y-74147047D01*
X114510279Y-74065000D01*
X114089721Y-74065000D01*
X113677244Y-74147047D01*
X113288698Y-74307988D01*
X112939017Y-74541637D01*
X112641637Y-74839017D01*
X112407988Y-75188698D01*
X112247047Y-75577244D01*
X112165000Y-75989721D01*
X111355000Y-75989721D01*
X111272953Y-75577244D01*
X111112012Y-75188698D01*
X110878363Y-74839017D01*
X110580983Y-74541637D01*
X110231302Y-74307988D01*
X109842756Y-74147047D01*
X109430279Y-74065000D01*
X109009721Y-74065000D01*
X108597244Y-74147047D01*
X108208698Y-74307988D01*
X107859017Y-74541637D01*
X107561637Y-74839017D01*
X107327988Y-75188698D01*
X107167047Y-75577244D01*
X107085000Y-75989721D01*
X106275000Y-75989721D01*
X106192953Y-75577244D01*
X106032012Y-75188698D01*
X105798363Y-74839017D01*
X105500983Y-74541637D01*
X105151302Y-74307988D01*
X104762756Y-74147047D01*
X104350279Y-74065000D01*
X103929721Y-74065000D01*
X103517244Y-74147047D01*
X103128698Y-74307988D01*
X102779017Y-74541637D01*
X102481637Y-74839017D01*
X102247988Y-75188698D01*
X102087047Y-75577244D01*
X102005000Y-75989721D01*
X102005000Y-76410279D01*
X102087047Y-76822756D01*
X102247988Y-77211302D01*
X102481637Y-77560983D01*
X102779017Y-77858363D01*
X103005001Y-78009360D01*
X103005001Y-78265559D01*
X103005000Y-78265569D01*
X103005001Y-90114239D01*
X102999509Y-90170000D01*
X103021423Y-90392498D01*
X103028375Y-90415417D01*
X102973946Y-90386324D01*
X102759998Y-90321423D01*
X102537500Y-90299509D01*
X102315001Y-90321423D01*
X102101053Y-90386324D01*
X101903877Y-90491716D01*
X101731051Y-90633551D01*
X101589216Y-90806377D01*
X101483824Y-91003554D01*
X101418923Y-91217502D01*
X101402500Y-91384249D01*
X101402500Y-92184249D01*
X101397009Y-92240000D01*
X88660000Y-92240000D01*
X88660000Y-75779872D01*
X89765000Y-75779872D01*
X89765000Y-76220128D01*
X89850890Y-76651925D01*
X90019369Y-77058669D01*
X90263962Y-77424729D01*
X90575271Y-77736038D01*
X90941331Y-77980631D01*
X91348075Y-78149110D01*
X91779872Y-78235000D01*
X92220128Y-78235000D01*
X92651925Y-78149110D01*
X93058669Y-77980631D01*
X93424729Y-77736038D01*
X93736038Y-77424729D01*
X93980631Y-77058669D01*
X94149110Y-76651925D01*
X94235000Y-76220128D01*
X94235000Y-75779872D01*
X94149110Y-75348075D01*
X93980631Y-74941331D01*
X93819380Y-74700000D01*
X96921928Y-74700000D01*
X96921928Y-77700000D01*
X96934188Y-77824482D01*
X96970498Y-77944180D01*
X97029463Y-78054494D01*
X97108815Y-78151185D01*
X97205506Y-78230537D01*
X97315820Y-78289502D01*
X97435518Y-78325812D01*
X97560000Y-78338072D01*
X100560000Y-78338072D01*
X100684482Y-78325812D01*
X100804180Y-78289502D01*
X100914494Y-78230537D01*
X101011185Y-78151185D01*
X101090537Y-78054494D01*
X101149502Y-77944180D01*
X101185812Y-77824482D01*
X101198072Y-77700000D01*
X101198072Y-74700000D01*
X101185812Y-74575518D01*
X101149502Y-74455820D01*
X101090537Y-74345506D01*
X101011185Y-74248815D01*
X100914494Y-74169463D01*
X100804180Y-74110498D01*
X100684482Y-74074188D01*
X100560000Y-74061928D01*
X97560000Y-74061928D01*
X97435518Y-74074188D01*
X97315820Y-74110498D01*
X97205506Y-74169463D01*
X97108815Y-74248815D01*
X97029463Y-74345506D01*
X96970498Y-74455820D01*
X96934188Y-74575518D01*
X96921928Y-74700000D01*
X93819380Y-74700000D01*
X93736038Y-74575271D01*
X93424729Y-74263962D01*
X93058669Y-74019369D01*
X92651925Y-73850890D01*
X92220128Y-73765000D01*
X91779872Y-73765000D01*
X91348075Y-73850890D01*
X90941331Y-74019369D01*
X90575271Y-74263962D01*
X90263962Y-74575271D01*
X90019369Y-74941331D01*
X89850890Y-75348075D01*
X89765000Y-75779872D01*
X88660000Y-75779872D01*
X88660000Y-73700000D01*
X126515928Y-73700000D01*
X126519000Y-75914250D01*
X126677750Y-76073000D01*
X129527000Y-76073000D01*
X129527000Y-73223750D01*
X129781000Y-73223750D01*
X129781000Y-76073000D01*
X132630250Y-76073000D01*
X132789000Y-75914250D01*
X132792072Y-73700000D01*
X134415928Y-73700000D01*
X134415928Y-78700000D01*
X134428188Y-78824482D01*
X134464498Y-78944180D01*
X134523463Y-79054494D01*
X134602815Y-79151185D01*
X134699506Y-79230537D01*
X134809820Y-79289502D01*
X134929518Y-79325812D01*
X135054000Y-79338072D01*
X140054000Y-79338072D01*
X140178482Y-79325812D01*
X140298180Y-79289502D01*
X140408494Y-79230537D01*
X140505185Y-79151185D01*
X140584537Y-79054494D01*
X140643502Y-78944180D01*
X140679812Y-78824482D01*
X140692072Y-78700000D01*
X144676928Y-78700000D01*
X144689188Y-78824482D01*
X144725498Y-78944180D01*
X144784463Y-79054494D01*
X144863815Y-79151185D01*
X144960506Y-79230537D01*
X145070820Y-79289502D01*
X145190518Y-79325812D01*
X145315000Y-79338072D01*
X147529250Y-79335000D01*
X147688000Y-79176250D01*
X147688000Y-76327000D01*
X147942000Y-76327000D01*
X147942000Y-79176250D01*
X148100750Y-79335000D01*
X150315000Y-79338072D01*
X150439482Y-79325812D01*
X150559180Y-79289502D01*
X150669494Y-79230537D01*
X150766185Y-79151185D01*
X150845537Y-79054494D01*
X150904502Y-78944180D01*
X150940812Y-78824482D01*
X150953072Y-78700000D01*
X150950000Y-76485750D01*
X150791250Y-76327000D01*
X147942000Y-76327000D01*
X147688000Y-76327000D01*
X144838750Y-76327000D01*
X144680000Y-76485750D01*
X144676928Y-78700000D01*
X140692072Y-78700000D01*
X140692072Y-73700000D01*
X144676928Y-73700000D01*
X144680000Y-75914250D01*
X144838750Y-76073000D01*
X147688000Y-76073000D01*
X147688000Y-73223750D01*
X147942000Y-73223750D01*
X147942000Y-76073000D01*
X150791250Y-76073000D01*
X150950000Y-75914250D01*
X150953072Y-73700000D01*
X152576928Y-73700000D01*
X152576928Y-78700000D01*
X152589188Y-78824482D01*
X152625498Y-78944180D01*
X152684463Y-79054494D01*
X152763815Y-79151185D01*
X152860506Y-79230537D01*
X152970820Y-79289502D01*
X153090518Y-79325812D01*
X153215000Y-79338072D01*
X158215000Y-79338072D01*
X158339482Y-79325812D01*
X158459180Y-79289502D01*
X158569494Y-79230537D01*
X158666185Y-79151185D01*
X158745537Y-79054494D01*
X158804502Y-78944180D01*
X158840812Y-78824482D01*
X158853072Y-78700000D01*
X158853072Y-75779872D01*
X161765000Y-75779872D01*
X161765000Y-76220128D01*
X161850890Y-76651925D01*
X162019369Y-77058669D01*
X162263962Y-77424729D01*
X162575271Y-77736038D01*
X162941331Y-77980631D01*
X163348075Y-78149110D01*
X163779872Y-78235000D01*
X164220128Y-78235000D01*
X164651925Y-78149110D01*
X165058669Y-77980631D01*
X165424729Y-77736038D01*
X165736038Y-77424729D01*
X165980631Y-77058669D01*
X166149110Y-76651925D01*
X166235000Y-76220128D01*
X166235000Y-75779872D01*
X166149110Y-75348075D01*
X165980631Y-74941331D01*
X165736038Y-74575271D01*
X165424729Y-74263962D01*
X165058669Y-74019369D01*
X164651925Y-73850890D01*
X164220128Y-73765000D01*
X163779872Y-73765000D01*
X163348075Y-73850890D01*
X162941331Y-74019369D01*
X162575271Y-74263962D01*
X162263962Y-74575271D01*
X162019369Y-74941331D01*
X161850890Y-75348075D01*
X161765000Y-75779872D01*
X158853072Y-75779872D01*
X158853072Y-73700000D01*
X158840812Y-73575518D01*
X158804502Y-73455820D01*
X158745537Y-73345506D01*
X158666185Y-73248815D01*
X158569494Y-73169463D01*
X158459180Y-73110498D01*
X158339482Y-73074188D01*
X158215000Y-73061928D01*
X153215000Y-73061928D01*
X153090518Y-73074188D01*
X152970820Y-73110498D01*
X152860506Y-73169463D01*
X152763815Y-73248815D01*
X152684463Y-73345506D01*
X152625498Y-73455820D01*
X152589188Y-73575518D01*
X152576928Y-73700000D01*
X150953072Y-73700000D01*
X150940812Y-73575518D01*
X150904502Y-73455820D01*
X150845537Y-73345506D01*
X150766185Y-73248815D01*
X150669494Y-73169463D01*
X150559180Y-73110498D01*
X150439482Y-73074188D01*
X150315000Y-73061928D01*
X148100750Y-73065000D01*
X147942000Y-73223750D01*
X147688000Y-73223750D01*
X147529250Y-73065000D01*
X145315000Y-73061928D01*
X145190518Y-73074188D01*
X145070820Y-73110498D01*
X144960506Y-73169463D01*
X144863815Y-73248815D01*
X144784463Y-73345506D01*
X144725498Y-73455820D01*
X144689188Y-73575518D01*
X144676928Y-73700000D01*
X140692072Y-73700000D01*
X140679812Y-73575518D01*
X140643502Y-73455820D01*
X140584537Y-73345506D01*
X140505185Y-73248815D01*
X140408494Y-73169463D01*
X140298180Y-73110498D01*
X140178482Y-73074188D01*
X140054000Y-73061928D01*
X135054000Y-73061928D01*
X134929518Y-73074188D01*
X134809820Y-73110498D01*
X134699506Y-73169463D01*
X134602815Y-73248815D01*
X134523463Y-73345506D01*
X134464498Y-73455820D01*
X134428188Y-73575518D01*
X134415928Y-73700000D01*
X132792072Y-73700000D01*
X132779812Y-73575518D01*
X132743502Y-73455820D01*
X132684537Y-73345506D01*
X132605185Y-73248815D01*
X132508494Y-73169463D01*
X132398180Y-73110498D01*
X132278482Y-73074188D01*
X132154000Y-73061928D01*
X129939750Y-73065000D01*
X129781000Y-73223750D01*
X129527000Y-73223750D01*
X129368250Y-73065000D01*
X127154000Y-73061928D01*
X127029518Y-73074188D01*
X126909820Y-73110498D01*
X126799506Y-73169463D01*
X126702815Y-73248815D01*
X126623463Y-73345506D01*
X126564498Y-73455820D01*
X126528188Y-73575518D01*
X126515928Y-73700000D01*
X88660000Y-73700000D01*
X88660000Y-71660000D01*
X167340001Y-71660000D01*
X167340000Y-108340000D01*
X167340000Y-108340000D01*
G37*
X167340000Y-108340000D02*
X88660000Y-108340000D01*
X88660000Y-103779872D01*
X89765000Y-103779872D01*
X89765000Y-104220128D01*
X89850890Y-104651925D01*
X90019369Y-105058669D01*
X90263962Y-105424729D01*
X90575271Y-105736038D01*
X90941331Y-105980631D01*
X91348075Y-106149110D01*
X91779872Y-106235000D01*
X92220128Y-106235000D01*
X92651925Y-106149110D01*
X93058669Y-105980631D01*
X93424729Y-105736038D01*
X93736038Y-105424729D01*
X93980631Y-105058669D01*
X94149110Y-104651925D01*
X94235000Y-104220128D01*
X94235000Y-103779872D01*
X94149110Y-103348075D01*
X93980631Y-102941331D01*
X93736038Y-102575271D01*
X93424729Y-102263962D01*
X93058669Y-102019369D01*
X92651925Y-101850890D01*
X92220128Y-101765000D01*
X91779872Y-101765000D01*
X91348075Y-101850890D01*
X90941331Y-102019369D01*
X90575271Y-102263962D01*
X90263962Y-102575271D01*
X90019369Y-102941331D01*
X89850890Y-103348075D01*
X89765000Y-103779872D01*
X88660000Y-103779872D01*
X88660000Y-99441000D01*
X98935509Y-99441000D01*
X98941000Y-99496751D01*
X98957423Y-99663498D01*
X99022324Y-99877446D01*
X99127716Y-100074623D01*
X99269551Y-100247449D01*
X99312865Y-100282996D01*
X106727009Y-107697141D01*
X106762551Y-107740449D01*
X106935377Y-107882284D01*
X107132553Y-107987676D01*
X107279496Y-108032251D01*
X107346500Y-108052577D01*
X107367493Y-108054644D01*
X107513248Y-108069000D01*
X107513255Y-108069000D01*
X107568999Y-108074490D01*
X107624743Y-108069000D01*
X142648536Y-108069000D01*
X142660657Y-108071141D01*
X142760150Y-108069000D01*
X142803752Y-108069000D01*
X142815942Y-108067799D01*
X142884179Y-108066331D01*
X142926919Y-108056869D01*
X142970499Y-108052577D01*
X143035832Y-108032758D01*
X143102470Y-108018006D01*
X143142546Y-108000387D01*
X143184447Y-107987676D01*
X143244653Y-107955496D01*
X143255854Y-107950571D01*
X143293813Y-107929219D01*
X143381623Y-107882284D01*
X143391143Y-107874471D01*
X145325847Y-106786201D01*
X145413623Y-106739284D01*
X145466391Y-106695978D01*
X145522319Y-106656842D01*
X145552603Y-106625225D01*
X145586449Y-106597449D01*
X145629758Y-106544676D01*
X145676972Y-106495386D01*
X145700505Y-106458472D01*
X145728284Y-106424623D01*
X145760462Y-106364421D01*
X145797157Y-106306861D01*
X145813039Y-106266057D01*
X145833676Y-106227447D01*
X145853492Y-106162122D01*
X145878251Y-106098511D01*
X145885866Y-106055402D01*
X145898577Y-106013499D01*
X145905269Y-105945556D01*
X145917141Y-105878344D01*
X145915000Y-105778851D01*
X145915000Y-101241984D01*
X151305000Y-101241984D01*
X151305000Y-101958016D01*
X151444691Y-102660290D01*
X151718705Y-103321818D01*
X152116511Y-103917177D01*
X152622823Y-104423489D01*
X153218182Y-104821295D01*
X153879710Y-105095309D01*
X154581984Y-105235000D01*
X155298016Y-105235000D01*
X156000290Y-105095309D01*
X156661818Y-104821295D01*
X157257177Y-104423489D01*
X157763489Y-103917177D01*
X157855233Y-103779872D01*
X161765000Y-103779872D01*
X161765000Y-104220128D01*
X161850890Y-104651925D01*
X162019369Y-105058669D01*
X162263962Y-105424729D01*
X162575271Y-105736038D01*
X162941331Y-105980631D01*
X163348075Y-106149110D01*
X163779872Y-106235000D01*
X164220128Y-106235000D01*
X164651925Y-106149110D01*
X165058669Y-105980631D01*
X165424729Y-105736038D01*
X165736038Y-105424729D01*
X165980631Y-105058669D01*
X166149110Y-104651925D01*
X166235000Y-104220128D01*
X166235000Y-103779872D01*
X166149110Y-103348075D01*
X165980631Y-102941331D01*
X165736038Y-102575271D01*
X165424729Y-102263962D01*
X165058669Y-102019369D01*
X164651925Y-101850890D01*
X164220128Y-101765000D01*
X163779872Y-101765000D01*
X163348075Y-101850890D01*
X162941331Y-102019369D01*
X162575271Y-102263962D01*
X162263962Y-102575271D01*
X162019369Y-102941331D01*
X161850890Y-103348075D01*
X161765000Y-103779872D01*
X157855233Y-103779872D01*
X158161295Y-103321818D01*
X158435309Y-102660290D01*
X158575000Y-101958016D01*
X158575000Y-101241984D01*
X158435309Y-100539710D01*
X158161295Y-99878182D01*
X157763489Y-99282823D01*
X157257177Y-98776511D01*
X156661818Y-98378705D01*
X156000290Y-98104691D01*
X155298016Y-97965000D01*
X154581984Y-97965000D01*
X153879710Y-98104691D01*
X153218182Y-98378705D01*
X152622823Y-98776511D01*
X152116511Y-99282823D01*
X151718705Y-99878182D01*
X151444691Y-100539710D01*
X151305000Y-101241984D01*
X145915000Y-101241984D01*
X145915000Y-99398212D01*
X145976680Y-99379502D01*
X146086994Y-99320537D01*
X146183685Y-99241185D01*
X146263037Y-99144494D01*
X146322002Y-99034180D01*
X146358312Y-98914482D01*
X146370572Y-98790000D01*
X146370572Y-96790000D01*
X146358312Y-96665518D01*
X146322002Y-96545820D01*
X146263037Y-96435506D01*
X146183685Y-96338815D01*
X146086994Y-96259463D01*
X145976680Y-96200498D01*
X145856982Y-96164188D01*
X145732500Y-96151928D01*
X143827500Y-96151928D01*
X143703018Y-96164188D01*
X143583320Y-96200498D01*
X143473006Y-96259463D01*
X143376315Y-96338815D01*
X143296963Y-96435506D01*
X143252095Y-96519446D01*
X143126235Y-96416155D01*
X142850449Y-96268745D01*
X142551204Y-96177970D01*
X142240000Y-96147319D01*
X141928797Y-96177970D01*
X141629552Y-96268745D01*
X141353766Y-96416155D01*
X141112037Y-96614537D01*
X140970000Y-96787609D01*
X140827963Y-96614537D01*
X140586235Y-96416155D01*
X140310449Y-96268745D01*
X140011204Y-96177970D01*
X139700000Y-96147319D01*
X139388797Y-96177970D01*
X139089552Y-96268745D01*
X138813766Y-96416155D01*
X138572037Y-96614537D01*
X138373655Y-96856265D01*
X138226245Y-97132051D01*
X138135470Y-97431296D01*
X138112500Y-97664514D01*
X138112500Y-97915485D01*
X138135470Y-98148703D01*
X138226245Y-98447948D01*
X138373655Y-98723734D01*
X138572037Y-98965463D01*
X138813765Y-99163845D01*
X139089551Y-99311255D01*
X139388796Y-99402030D01*
X139700000Y-99432681D01*
X140011203Y-99402030D01*
X140310448Y-99311255D01*
X140586234Y-99163845D01*
X140827963Y-98965463D01*
X140970000Y-98792391D01*
X141112037Y-98965463D01*
X141353765Y-99163845D01*
X141629551Y-99311255D01*
X141928796Y-99402030D01*
X142240000Y-99432681D01*
X142551203Y-99402030D01*
X142850448Y-99311255D01*
X143126234Y-99163845D01*
X143252095Y-99060553D01*
X143296963Y-99144494D01*
X143376315Y-99241185D01*
X143473006Y-99320537D01*
X143583320Y-99379502D01*
X143645000Y-99398212D01*
X143645001Y-105127198D01*
X142450686Y-105799000D01*
X108039132Y-105799000D01*
X103482116Y-101241984D01*
X125905000Y-101241984D01*
X125905000Y-101958016D01*
X126044691Y-102660290D01*
X126318705Y-103321818D01*
X126716511Y-103917177D01*
X127222823Y-104423489D01*
X127818182Y-104821295D01*
X128479710Y-105095309D01*
X129181984Y-105235000D01*
X129898016Y-105235000D01*
X130600290Y-105095309D01*
X131261818Y-104821295D01*
X131857177Y-104423489D01*
X132363489Y-103917177D01*
X132761295Y-103321818D01*
X133035309Y-102660290D01*
X133175000Y-101958016D01*
X133175000Y-101241984D01*
X133035309Y-100539710D01*
X132761295Y-99878182D01*
X132363489Y-99282823D01*
X131857177Y-98776511D01*
X131261818Y-98378705D01*
X130600290Y-98104691D01*
X129898016Y-97965000D01*
X129181984Y-97965000D01*
X128479710Y-98104691D01*
X127818182Y-98378705D01*
X127222823Y-98776511D01*
X126716511Y-99282823D01*
X126318705Y-99878182D01*
X126044691Y-100539710D01*
X125905000Y-101241984D01*
X103482116Y-101241984D01*
X101207353Y-98967222D01*
X101194577Y-98837502D01*
X101129676Y-98623554D01*
X101024284Y-98426377D01*
X100882449Y-98253551D01*
X100709623Y-98111716D01*
X100512447Y-98006324D01*
X100298499Y-97941423D01*
X100076000Y-97919509D01*
X99853502Y-97941423D01*
X99639554Y-98006324D01*
X99442378Y-98111716D01*
X99269552Y-98253551D01*
X99127717Y-98426377D01*
X99022324Y-98623553D01*
X98957423Y-98837501D01*
X98941000Y-99004248D01*
X98941000Y-99385249D01*
X98935509Y-99441000D01*
X88660000Y-99441000D01*
X88660000Y-92240000D01*
X101397009Y-92240000D01*
X101402500Y-92295751D01*
X101402500Y-92295752D01*
X101418923Y-92462499D01*
X101483824Y-92676447D01*
X101589217Y-92873623D01*
X101731052Y-93046449D01*
X101774360Y-93081991D01*
X102116000Y-93423631D01*
X102116001Y-98293550D01*
X102071423Y-98440502D01*
X102049509Y-98663000D01*
X102071423Y-98885498D01*
X102136324Y-99099446D01*
X102241717Y-99296622D01*
X102383552Y-99469448D01*
X102556378Y-99611283D01*
X102753554Y-99716676D01*
X102967502Y-99781577D01*
X103190000Y-99803491D01*
X103412498Y-99781577D01*
X103626446Y-99716676D01*
X103823622Y-99611283D01*
X103953143Y-99504988D01*
X104014135Y-99443996D01*
X104057449Y-99408449D01*
X104199284Y-99235623D01*
X104304676Y-99038447D01*
X104369577Y-98824499D01*
X104386000Y-98657752D01*
X104391491Y-98602001D01*
X104386000Y-98546249D01*
X104386000Y-93009241D01*
X104391490Y-92953499D01*
X104386000Y-92897757D01*
X104386000Y-92897748D01*
X104369577Y-92731001D01*
X104304676Y-92517053D01*
X104199284Y-92319877D01*
X104057449Y-92147051D01*
X104014135Y-92111504D01*
X103672500Y-91769869D01*
X103672500Y-91384248D01*
X103664130Y-91299261D01*
X105418000Y-93053132D01*
X105418001Y-96845238D01*
X105412509Y-96901000D01*
X105434423Y-97123499D01*
X105499324Y-97337447D01*
X105604716Y-97534623D01*
X105746551Y-97707449D01*
X105919377Y-97849284D01*
X106116553Y-97954676D01*
X106330501Y-98019577D01*
X106497248Y-98036000D01*
X106497249Y-98036000D01*
X106553000Y-98041491D01*
X106775499Y-98019577D01*
X106989447Y-97954676D01*
X107186623Y-97849284D01*
X107359449Y-97707449D01*
X107501284Y-97534623D01*
X107606676Y-97337447D01*
X107671577Y-97123499D01*
X107688000Y-96956752D01*
X107693491Y-96901000D01*
X107688000Y-96845248D01*
X107688000Y-92638741D01*
X107693490Y-92582999D01*
X107688000Y-92527257D01*
X107688000Y-92527248D01*
X107671577Y-92360501D01*
X107606676Y-92146553D01*
X107501284Y-91949377D01*
X107359449Y-91776551D01*
X107316141Y-91741009D01*
X105275000Y-89699869D01*
X105275000Y-89662000D01*
X109857509Y-89662000D01*
X109879423Y-89884499D01*
X109944324Y-90098447D01*
X110049716Y-90295623D01*
X110191551Y-90468449D01*
X110364377Y-90610284D01*
X110561553Y-90715676D01*
X110775501Y-90780577D01*
X110942248Y-90797000D01*
X118545752Y-90797000D01*
X118712499Y-90780577D01*
X118926447Y-90715676D01*
X119123623Y-90610284D01*
X119296449Y-90468449D01*
X119438284Y-90295623D01*
X119543676Y-90098447D01*
X119608577Y-89884499D01*
X119630491Y-89662000D01*
X119608577Y-89439501D01*
X119543676Y-89225553D01*
X119438284Y-89028377D01*
X119296449Y-88855551D01*
X119123623Y-88713716D01*
X118926447Y-88608324D01*
X118712499Y-88543423D01*
X118545752Y-88527000D01*
X110942248Y-88527000D01*
X110775501Y-88543423D01*
X110561553Y-88608324D01*
X110364377Y-88713716D01*
X110191551Y-88855551D01*
X110049716Y-89028377D01*
X109944324Y-89225553D01*
X109879423Y-89439501D01*
X109857509Y-89662000D01*
X105275000Y-89662000D01*
X105275000Y-78700000D01*
X126515928Y-78700000D01*
X126528188Y-78824482D01*
X126564498Y-78944180D01*
X126623463Y-79054494D01*
X126702815Y-79151185D01*
X126799506Y-79230537D01*
X126909820Y-79289502D01*
X127029518Y-79325812D01*
X127154000Y-79338072D01*
X129368250Y-79335000D01*
X129527000Y-79176250D01*
X129527000Y-76327000D01*
X129781000Y-76327000D01*
X129781000Y-79176250D01*
X129939750Y-79335000D01*
X132154000Y-79338072D01*
X132278482Y-79325812D01*
X132398180Y-79289502D01*
X132508494Y-79230537D01*
X132605185Y-79151185D01*
X132684537Y-79054494D01*
X132743502Y-78944180D01*
X132779812Y-78824482D01*
X132792072Y-78700000D01*
X132789000Y-76485750D01*
X132630250Y-76327000D01*
X129781000Y-76327000D01*
X129527000Y-76327000D01*
X126677750Y-76327000D01*
X126519000Y-76485750D01*
X126515928Y-78700000D01*
X105275000Y-78700000D01*
X105275000Y-78009360D01*
X105500983Y-77858363D01*
X105798363Y-77560983D01*
X106032012Y-77211302D01*
X106192953Y-76822756D01*
X106275000Y-76410279D01*
X106275000Y-75989721D01*
X107085000Y-75989721D01*
X107085000Y-76410279D01*
X107167047Y-76822756D01*
X107327988Y-77211302D01*
X107561637Y-77560983D01*
X107859017Y-77858363D01*
X108208698Y-78092012D01*
X108597244Y-78252953D01*
X109009721Y-78335000D01*
X109430279Y-78335000D01*
X109842756Y-78252953D01*
X110231302Y-78092012D01*
X110580983Y-77858363D01*
X110878363Y-77560983D01*
X111112012Y-77211302D01*
X111272953Y-76822756D01*
X111355000Y-76410279D01*
X111355000Y-75989721D01*
X112165000Y-75989721D01*
X112165000Y-76410279D01*
X112247047Y-76822756D01*
X112407988Y-77211302D01*
X112641637Y-77560983D01*
X112939017Y-77858363D01*
X113288698Y-78092012D01*
X113677244Y-78252953D01*
X114089721Y-78335000D01*
X114510279Y-78335000D01*
X114922756Y-78252953D01*
X115311302Y-78092012D01*
X115660983Y-77858363D01*
X115827693Y-77691653D01*
X118067952Y-77691653D01*
X118223962Y-78007214D01*
X118598745Y-78198020D01*
X119003551Y-78312044D01*
X119422824Y-78344902D01*
X119840451Y-78295334D01*
X120240383Y-78165243D01*
X120536038Y-78007214D01*
X120692048Y-77691653D01*
X119380000Y-76379605D01*
X118067952Y-77691653D01*
X115827693Y-77691653D01*
X115958363Y-77560983D01*
X116192012Y-77211302D01*
X116352953Y-76822756D01*
X116435000Y-76410279D01*
X116435000Y-76242824D01*
X117235098Y-76242824D01*
X117284666Y-76660451D01*
X117414757Y-77060383D01*
X117572786Y-77356038D01*
X117888347Y-77512048D01*
X119200395Y-76200000D01*
X119559605Y-76200000D01*
X120871653Y-77512048D01*
X121187214Y-77356038D01*
X121378020Y-76981255D01*
X121492044Y-76576449D01*
X121524902Y-76157176D01*
X121475334Y-75739549D01*
X121345243Y-75339617D01*
X121187214Y-75043962D01*
X120871653Y-74887952D01*
X119559605Y-76200000D01*
X119200395Y-76200000D01*
X117888347Y-74887952D01*
X117572786Y-75043962D01*
X117381980Y-75418745D01*
X117267956Y-75823551D01*
X117235098Y-76242824D01*
X116435000Y-76242824D01*
X116435000Y-75989721D01*
X116352953Y-75577244D01*
X116192012Y-75188698D01*
X115958363Y-74839017D01*
X115827693Y-74708347D01*
X118067952Y-74708347D01*
X119380000Y-76020395D01*
X120692048Y-74708347D01*
X120536038Y-74392786D01*
X120161255Y-74201980D01*
X119756449Y-74087956D01*
X119337176Y-74055098D01*
X118919549Y-74104666D01*
X118519617Y-74234757D01*
X118223962Y-74392786D01*
X118067952Y-74708347D01*
X115827693Y-74708347D01*
X115660983Y-74541637D01*
X115311302Y-74307988D01*
X114922756Y-74147047D01*
X114510279Y-74065000D01*
X114089721Y-74065000D01*
X113677244Y-74147047D01*
X113288698Y-74307988D01*
X112939017Y-74541637D01*
X112641637Y-74839017D01*
X112407988Y-75188698D01*
X112247047Y-75577244D01*
X112165000Y-75989721D01*
X111355000Y-75989721D01*
X111272953Y-75577244D01*
X111112012Y-75188698D01*
X110878363Y-74839017D01*
X110580983Y-74541637D01*
X110231302Y-74307988D01*
X109842756Y-74147047D01*
X109430279Y-74065000D01*
X109009721Y-74065000D01*
X108597244Y-74147047D01*
X108208698Y-74307988D01*
X107859017Y-74541637D01*
X107561637Y-74839017D01*
X107327988Y-75188698D01*
X107167047Y-75577244D01*
X107085000Y-75989721D01*
X106275000Y-75989721D01*
X106192953Y-75577244D01*
X106032012Y-75188698D01*
X105798363Y-74839017D01*
X105500983Y-74541637D01*
X105151302Y-74307988D01*
X104762756Y-74147047D01*
X104350279Y-74065000D01*
X103929721Y-74065000D01*
X103517244Y-74147047D01*
X103128698Y-74307988D01*
X102779017Y-74541637D01*
X102481637Y-74839017D01*
X102247988Y-75188698D01*
X102087047Y-75577244D01*
X102005000Y-75989721D01*
X102005000Y-76410279D01*
X102087047Y-76822756D01*
X102247988Y-77211302D01*
X102481637Y-77560983D01*
X102779017Y-77858363D01*
X103005001Y-78009360D01*
X103005001Y-78265559D01*
X103005000Y-78265569D01*
X103005001Y-90114239D01*
X102999509Y-90170000D01*
X103021423Y-90392498D01*
X103028375Y-90415417D01*
X102973946Y-90386324D01*
X102759998Y-90321423D01*
X102537500Y-90299509D01*
X102315001Y-90321423D01*
X102101053Y-90386324D01*
X101903877Y-90491716D01*
X101731051Y-90633551D01*
X101589216Y-90806377D01*
X101483824Y-91003554D01*
X101418923Y-91217502D01*
X101402500Y-91384249D01*
X101402500Y-92184249D01*
X101397009Y-92240000D01*
X88660000Y-92240000D01*
X88660000Y-75779872D01*
X89765000Y-75779872D01*
X89765000Y-76220128D01*
X89850890Y-76651925D01*
X90019369Y-77058669D01*
X90263962Y-77424729D01*
X90575271Y-77736038D01*
X90941331Y-77980631D01*
X91348075Y-78149110D01*
X91779872Y-78235000D01*
X92220128Y-78235000D01*
X92651925Y-78149110D01*
X93058669Y-77980631D01*
X93424729Y-77736038D01*
X93736038Y-77424729D01*
X93980631Y-77058669D01*
X94149110Y-76651925D01*
X94235000Y-76220128D01*
X94235000Y-75779872D01*
X94149110Y-75348075D01*
X93980631Y-74941331D01*
X93819380Y-74700000D01*
X96921928Y-74700000D01*
X96921928Y-77700000D01*
X96934188Y-77824482D01*
X96970498Y-77944180D01*
X97029463Y-78054494D01*
X97108815Y-78151185D01*
X97205506Y-78230537D01*
X97315820Y-78289502D01*
X97435518Y-78325812D01*
X97560000Y-78338072D01*
X100560000Y-78338072D01*
X100684482Y-78325812D01*
X100804180Y-78289502D01*
X100914494Y-78230537D01*
X101011185Y-78151185D01*
X101090537Y-78054494D01*
X101149502Y-77944180D01*
X101185812Y-77824482D01*
X101198072Y-77700000D01*
X101198072Y-74700000D01*
X101185812Y-74575518D01*
X101149502Y-74455820D01*
X101090537Y-74345506D01*
X101011185Y-74248815D01*
X100914494Y-74169463D01*
X100804180Y-74110498D01*
X100684482Y-74074188D01*
X100560000Y-74061928D01*
X97560000Y-74061928D01*
X97435518Y-74074188D01*
X97315820Y-74110498D01*
X97205506Y-74169463D01*
X97108815Y-74248815D01*
X97029463Y-74345506D01*
X96970498Y-74455820D01*
X96934188Y-74575518D01*
X96921928Y-74700000D01*
X93819380Y-74700000D01*
X93736038Y-74575271D01*
X93424729Y-74263962D01*
X93058669Y-74019369D01*
X92651925Y-73850890D01*
X92220128Y-73765000D01*
X91779872Y-73765000D01*
X91348075Y-73850890D01*
X90941331Y-74019369D01*
X90575271Y-74263962D01*
X90263962Y-74575271D01*
X90019369Y-74941331D01*
X89850890Y-75348075D01*
X89765000Y-75779872D01*
X88660000Y-75779872D01*
X88660000Y-73700000D01*
X126515928Y-73700000D01*
X126519000Y-75914250D01*
X126677750Y-76073000D01*
X129527000Y-76073000D01*
X129527000Y-73223750D01*
X129781000Y-73223750D01*
X129781000Y-76073000D01*
X132630250Y-76073000D01*
X132789000Y-75914250D01*
X132792072Y-73700000D01*
X134415928Y-73700000D01*
X134415928Y-78700000D01*
X134428188Y-78824482D01*
X134464498Y-78944180D01*
X134523463Y-79054494D01*
X134602815Y-79151185D01*
X134699506Y-79230537D01*
X134809820Y-79289502D01*
X134929518Y-79325812D01*
X135054000Y-79338072D01*
X140054000Y-79338072D01*
X140178482Y-79325812D01*
X140298180Y-79289502D01*
X140408494Y-79230537D01*
X140505185Y-79151185D01*
X140584537Y-79054494D01*
X140643502Y-78944180D01*
X140679812Y-78824482D01*
X140692072Y-78700000D01*
X144676928Y-78700000D01*
X144689188Y-78824482D01*
X144725498Y-78944180D01*
X144784463Y-79054494D01*
X144863815Y-79151185D01*
X144960506Y-79230537D01*
X145070820Y-79289502D01*
X145190518Y-79325812D01*
X145315000Y-79338072D01*
X147529250Y-79335000D01*
X147688000Y-79176250D01*
X147688000Y-76327000D01*
X147942000Y-76327000D01*
X147942000Y-79176250D01*
X148100750Y-79335000D01*
X150315000Y-79338072D01*
X150439482Y-79325812D01*
X150559180Y-79289502D01*
X150669494Y-79230537D01*
X150766185Y-79151185D01*
X150845537Y-79054494D01*
X150904502Y-78944180D01*
X150940812Y-78824482D01*
X150953072Y-78700000D01*
X150950000Y-76485750D01*
X150791250Y-76327000D01*
X147942000Y-76327000D01*
X147688000Y-76327000D01*
X144838750Y-76327000D01*
X144680000Y-76485750D01*
X144676928Y-78700000D01*
X140692072Y-78700000D01*
X140692072Y-73700000D01*
X144676928Y-73700000D01*
X144680000Y-75914250D01*
X144838750Y-76073000D01*
X147688000Y-76073000D01*
X147688000Y-73223750D01*
X147942000Y-73223750D01*
X147942000Y-76073000D01*
X150791250Y-76073000D01*
X150950000Y-75914250D01*
X150953072Y-73700000D01*
X152576928Y-73700000D01*
X152576928Y-78700000D01*
X152589188Y-78824482D01*
X152625498Y-78944180D01*
X152684463Y-79054494D01*
X152763815Y-79151185D01*
X152860506Y-79230537D01*
X152970820Y-79289502D01*
X153090518Y-79325812D01*
X153215000Y-79338072D01*
X158215000Y-79338072D01*
X158339482Y-79325812D01*
X158459180Y-79289502D01*
X158569494Y-79230537D01*
X158666185Y-79151185D01*
X158745537Y-79054494D01*
X158804502Y-78944180D01*
X158840812Y-78824482D01*
X158853072Y-78700000D01*
X158853072Y-75779872D01*
X161765000Y-75779872D01*
X161765000Y-76220128D01*
X161850890Y-76651925D01*
X162019369Y-77058669D01*
X162263962Y-77424729D01*
X162575271Y-77736038D01*
X162941331Y-77980631D01*
X163348075Y-78149110D01*
X163779872Y-78235000D01*
X164220128Y-78235000D01*
X164651925Y-78149110D01*
X165058669Y-77980631D01*
X165424729Y-77736038D01*
X165736038Y-77424729D01*
X165980631Y-77058669D01*
X166149110Y-76651925D01*
X166235000Y-76220128D01*
X166235000Y-75779872D01*
X166149110Y-75348075D01*
X165980631Y-74941331D01*
X165736038Y-74575271D01*
X165424729Y-74263962D01*
X165058669Y-74019369D01*
X164651925Y-73850890D01*
X164220128Y-73765000D01*
X163779872Y-73765000D01*
X163348075Y-73850890D01*
X162941331Y-74019369D01*
X162575271Y-74263962D01*
X162263962Y-74575271D01*
X162019369Y-74941331D01*
X161850890Y-75348075D01*
X161765000Y-75779872D01*
X158853072Y-75779872D01*
X158853072Y-73700000D01*
X158840812Y-73575518D01*
X158804502Y-73455820D01*
X158745537Y-73345506D01*
X158666185Y-73248815D01*
X158569494Y-73169463D01*
X158459180Y-73110498D01*
X158339482Y-73074188D01*
X158215000Y-73061928D01*
X153215000Y-73061928D01*
X153090518Y-73074188D01*
X152970820Y-73110498D01*
X152860506Y-73169463D01*
X152763815Y-73248815D01*
X152684463Y-73345506D01*
X152625498Y-73455820D01*
X152589188Y-73575518D01*
X152576928Y-73700000D01*
X150953072Y-73700000D01*
X150940812Y-73575518D01*
X150904502Y-73455820D01*
X150845537Y-73345506D01*
X150766185Y-73248815D01*
X150669494Y-73169463D01*
X150559180Y-73110498D01*
X150439482Y-73074188D01*
X150315000Y-73061928D01*
X148100750Y-73065000D01*
X147942000Y-73223750D01*
X147688000Y-73223750D01*
X147529250Y-73065000D01*
X145315000Y-73061928D01*
X145190518Y-73074188D01*
X145070820Y-73110498D01*
X144960506Y-73169463D01*
X144863815Y-73248815D01*
X144784463Y-73345506D01*
X144725498Y-73455820D01*
X144689188Y-73575518D01*
X144676928Y-73700000D01*
X140692072Y-73700000D01*
X140679812Y-73575518D01*
X140643502Y-73455820D01*
X140584537Y-73345506D01*
X140505185Y-73248815D01*
X140408494Y-73169463D01*
X140298180Y-73110498D01*
X140178482Y-73074188D01*
X140054000Y-73061928D01*
X135054000Y-73061928D01*
X134929518Y-73074188D01*
X134809820Y-73110498D01*
X134699506Y-73169463D01*
X134602815Y-73248815D01*
X134523463Y-73345506D01*
X134464498Y-73455820D01*
X134428188Y-73575518D01*
X134415928Y-73700000D01*
X132792072Y-73700000D01*
X132779812Y-73575518D01*
X132743502Y-73455820D01*
X132684537Y-73345506D01*
X132605185Y-73248815D01*
X132508494Y-73169463D01*
X132398180Y-73110498D01*
X132278482Y-73074188D01*
X132154000Y-73061928D01*
X129939750Y-73065000D01*
X129781000Y-73223750D01*
X129527000Y-73223750D01*
X129368250Y-73065000D01*
X127154000Y-73061928D01*
X127029518Y-73074188D01*
X126909820Y-73110498D01*
X126799506Y-73169463D01*
X126702815Y-73248815D01*
X126623463Y-73345506D01*
X126564498Y-73455820D01*
X126528188Y-73575518D01*
X126515928Y-73700000D01*
X88660000Y-73700000D01*
X88660000Y-71660000D01*
X167340001Y-71660000D01*
X167340000Y-108340000D01*
M02*
