G04 #@! TF.GenerationSoftware,KiCad,Pcbnew,(5.1.2)-2*
G04 #@! TF.CreationDate,2019-08-17T13:58:46+01:00*
G04 #@! TF.ProjectId,Sequencer,53657175-656e-4636-9572-2e6b69636164,rev?*
G04 #@! TF.SameCoordinates,Original*
G04 #@! TF.FileFunction,Soldermask,Bot*
G04 #@! TF.FilePolarity,Negative*
%FSLAX46Y46*%
G04 Gerber Fmt 4.6, Leading zero omitted, Abs format (unit mm)*
G04 Created by KiCad (PCBNEW (5.1.2)-2) date 2019-08-17 13:58:46*
%MOMM*%
%LPD*%
G04 APERTURE LIST*
%ADD10C,0.100000*%
G04 APERTURE END LIST*
D10*
G36*
X164375256Y-102391298D02*
G01*
X164481579Y-102412447D01*
X164782042Y-102536903D01*
X165052451Y-102717585D01*
X165282415Y-102947549D01*
X165463097Y-103217958D01*
X165587553Y-103518421D01*
X165651000Y-103837391D01*
X165651000Y-104162609D01*
X165587553Y-104481579D01*
X165463097Y-104782042D01*
X165282415Y-105052451D01*
X165052451Y-105282415D01*
X164782042Y-105463097D01*
X164481579Y-105587553D01*
X164375256Y-105608702D01*
X164162611Y-105651000D01*
X163837389Y-105651000D01*
X163624744Y-105608702D01*
X163518421Y-105587553D01*
X163217958Y-105463097D01*
X162947549Y-105282415D01*
X162717585Y-105052451D01*
X162536903Y-104782042D01*
X162412447Y-104481579D01*
X162349000Y-104162609D01*
X162349000Y-103837391D01*
X162412447Y-103518421D01*
X162536903Y-103217958D01*
X162717585Y-102947549D01*
X162947549Y-102717585D01*
X163217958Y-102536903D01*
X163518421Y-102412447D01*
X163624744Y-102391298D01*
X163837389Y-102349000D01*
X164162611Y-102349000D01*
X164375256Y-102391298D01*
X164375256Y-102391298D01*
G37*
G36*
X92375256Y-102391298D02*
G01*
X92481579Y-102412447D01*
X92782042Y-102536903D01*
X93052451Y-102717585D01*
X93282415Y-102947549D01*
X93463097Y-103217958D01*
X93587553Y-103518421D01*
X93651000Y-103837391D01*
X93651000Y-104162609D01*
X93587553Y-104481579D01*
X93463097Y-104782042D01*
X93282415Y-105052451D01*
X93052451Y-105282415D01*
X92782042Y-105463097D01*
X92481579Y-105587553D01*
X92375256Y-105608702D01*
X92162611Y-105651000D01*
X91837389Y-105651000D01*
X91624744Y-105608702D01*
X91518421Y-105587553D01*
X91217958Y-105463097D01*
X90947549Y-105282415D01*
X90717585Y-105052451D01*
X90536903Y-104782042D01*
X90412447Y-104481579D01*
X90349000Y-104162609D01*
X90349000Y-103837391D01*
X90412447Y-103518421D01*
X90536903Y-103217958D01*
X90717585Y-102947549D01*
X90947549Y-102717585D01*
X91217958Y-102536903D01*
X91518421Y-102412447D01*
X91624744Y-102391298D01*
X91837389Y-102349000D01*
X92162611Y-102349000D01*
X92375256Y-102391298D01*
X92375256Y-102391298D01*
G37*
G36*
X130429943Y-98666248D02*
G01*
X130985189Y-98896238D01*
X130985190Y-98896239D01*
X131484899Y-99230134D01*
X131909866Y-99655101D01*
X131909867Y-99655103D01*
X132243762Y-100154811D01*
X132473752Y-100710057D01*
X132591000Y-101299501D01*
X132591000Y-101900499D01*
X132473752Y-102489943D01*
X132243762Y-103045189D01*
X132243761Y-103045190D01*
X131909866Y-103544899D01*
X131484899Y-103969866D01*
X131233347Y-104137948D01*
X130985189Y-104303762D01*
X130429943Y-104533752D01*
X129840499Y-104651000D01*
X129239501Y-104651000D01*
X128650057Y-104533752D01*
X128094811Y-104303762D01*
X127846653Y-104137948D01*
X127595101Y-103969866D01*
X127170134Y-103544899D01*
X126836239Y-103045190D01*
X126836238Y-103045189D01*
X126606248Y-102489943D01*
X126489000Y-101900499D01*
X126489000Y-101299501D01*
X126606248Y-100710057D01*
X126836238Y-100154811D01*
X127170133Y-99655103D01*
X127170134Y-99655101D01*
X127595101Y-99230134D01*
X128094810Y-98896239D01*
X128094811Y-98896238D01*
X128650057Y-98666248D01*
X129239501Y-98549000D01*
X129840499Y-98549000D01*
X130429943Y-98666248D01*
X130429943Y-98666248D01*
G37*
G36*
X155829943Y-98666248D02*
G01*
X156385189Y-98896238D01*
X156385190Y-98896239D01*
X156884899Y-99230134D01*
X157309866Y-99655101D01*
X157309867Y-99655103D01*
X157643762Y-100154811D01*
X157873752Y-100710057D01*
X157991000Y-101299501D01*
X157991000Y-101900499D01*
X157873752Y-102489943D01*
X157643762Y-103045189D01*
X157643761Y-103045190D01*
X157309866Y-103544899D01*
X156884899Y-103969866D01*
X156633347Y-104137948D01*
X156385189Y-104303762D01*
X155829943Y-104533752D01*
X155240499Y-104651000D01*
X154639501Y-104651000D01*
X154050057Y-104533752D01*
X153494811Y-104303762D01*
X153246653Y-104137948D01*
X152995101Y-103969866D01*
X152570134Y-103544899D01*
X152236239Y-103045190D01*
X152236238Y-103045189D01*
X152006248Y-102489943D01*
X151889000Y-101900499D01*
X151889000Y-101299501D01*
X152006248Y-100710057D01*
X152236238Y-100154811D01*
X152570133Y-99655103D01*
X152570134Y-99655101D01*
X152995101Y-99230134D01*
X153494810Y-98896239D01*
X153494811Y-98896238D01*
X154050057Y-98666248D01*
X154639501Y-98549000D01*
X155240499Y-98549000D01*
X155829943Y-98666248D01*
X155829943Y-98666248D01*
G37*
G36*
X139896720Y-96753520D02*
G01*
X140085881Y-96810901D01*
X140260212Y-96904083D01*
X140413015Y-97029485D01*
X140538417Y-97182288D01*
X140582182Y-97264167D01*
X140631598Y-97356617D01*
X140631599Y-97356620D01*
X140688980Y-97545781D01*
X140703500Y-97693207D01*
X140703500Y-97886794D01*
X140688980Y-98034220D01*
X140631599Y-98223381D01*
X140538417Y-98397712D01*
X140413015Y-98550515D01*
X140260212Y-98675917D01*
X140178333Y-98719682D01*
X140085883Y-98769098D01*
X140085880Y-98769099D01*
X139896719Y-98826480D01*
X139700000Y-98845855D01*
X139503280Y-98826480D01*
X139314119Y-98769099D01*
X139139788Y-98675917D01*
X138986985Y-98550515D01*
X138861583Y-98397712D01*
X138817818Y-98315833D01*
X138768402Y-98223383D01*
X138768401Y-98223380D01*
X138711020Y-98034219D01*
X138696500Y-97886793D01*
X138696500Y-97693206D01*
X138711020Y-97545780D01*
X138768401Y-97356619D01*
X138861583Y-97182288D01*
X138986985Y-97029485D01*
X139139788Y-96904083D01*
X139314120Y-96810901D01*
X139503281Y-96753520D01*
X139700000Y-96734145D01*
X139896720Y-96753520D01*
X139896720Y-96753520D01*
G37*
G36*
X142436720Y-96753520D02*
G01*
X142625881Y-96810901D01*
X142800212Y-96904083D01*
X142953015Y-97029485D01*
X143078417Y-97182288D01*
X143122182Y-97264167D01*
X143171598Y-97356617D01*
X143171599Y-97356620D01*
X143228980Y-97545781D01*
X143243500Y-97693207D01*
X143243500Y-97886794D01*
X143228980Y-98034220D01*
X143171599Y-98223381D01*
X143078417Y-98397712D01*
X142953015Y-98550515D01*
X142800212Y-98675917D01*
X142718333Y-98719682D01*
X142625883Y-98769098D01*
X142625880Y-98769099D01*
X142436719Y-98826480D01*
X142240000Y-98845855D01*
X142043280Y-98826480D01*
X141854119Y-98769099D01*
X141679788Y-98675917D01*
X141526985Y-98550515D01*
X141401583Y-98397712D01*
X141357818Y-98315833D01*
X141308402Y-98223383D01*
X141308401Y-98223380D01*
X141251020Y-98034219D01*
X141236500Y-97886793D01*
X141236500Y-97693206D01*
X141251020Y-97545780D01*
X141308401Y-97356619D01*
X141401583Y-97182288D01*
X141526985Y-97029485D01*
X141679788Y-96904083D01*
X141854120Y-96810901D01*
X142043281Y-96753520D01*
X142240000Y-96734145D01*
X142436720Y-96753520D01*
X142436720Y-96753520D01*
G37*
G36*
X145783500Y-98841000D02*
G01*
X143776500Y-98841000D01*
X143776500Y-96739000D01*
X145783500Y-96739000D01*
X145783500Y-98841000D01*
X145783500Y-98841000D01*
G37*
G36*
X150366000Y-78751000D02*
G01*
X145264000Y-78751000D01*
X145264000Y-73649000D01*
X150366000Y-73649000D01*
X150366000Y-78751000D01*
X150366000Y-78751000D01*
G37*
G36*
X132205000Y-78751000D02*
G01*
X127103000Y-78751000D01*
X127103000Y-73649000D01*
X132205000Y-73649000D01*
X132205000Y-78751000D01*
X132205000Y-78751000D01*
G37*
G36*
X158266000Y-78751000D02*
G01*
X153164000Y-78751000D01*
X153164000Y-73649000D01*
X158266000Y-73649000D01*
X158266000Y-78751000D01*
X158266000Y-78751000D01*
G37*
G36*
X140105000Y-78751000D02*
G01*
X135003000Y-78751000D01*
X135003000Y-73649000D01*
X140105000Y-73649000D01*
X140105000Y-78751000D01*
X140105000Y-78751000D01*
G37*
G36*
X119682585Y-74678802D02*
G01*
X119832410Y-74708604D01*
X120114674Y-74825521D01*
X120368705Y-74995259D01*
X120584741Y-75211295D01*
X120754479Y-75465326D01*
X120871396Y-75747590D01*
X120931000Y-76047240D01*
X120931000Y-76352760D01*
X120871396Y-76652410D01*
X120754479Y-76934674D01*
X120584741Y-77188705D01*
X120368705Y-77404741D01*
X120114674Y-77574479D01*
X119832410Y-77691396D01*
X119682585Y-77721198D01*
X119532761Y-77751000D01*
X119227239Y-77751000D01*
X119077415Y-77721198D01*
X118927590Y-77691396D01*
X118645326Y-77574479D01*
X118391295Y-77404741D01*
X118175259Y-77188705D01*
X118005521Y-76934674D01*
X117888604Y-76652410D01*
X117829000Y-76352760D01*
X117829000Y-76047240D01*
X117888604Y-75747590D01*
X118005521Y-75465326D01*
X118175259Y-75211295D01*
X118391295Y-74995259D01*
X118645326Y-74825521D01*
X118927590Y-74708604D01*
X119077415Y-74678802D01*
X119227239Y-74649000D01*
X119532761Y-74649000D01*
X119682585Y-74678802D01*
X119682585Y-74678802D01*
G37*
G36*
X104442585Y-74678802D02*
G01*
X104592410Y-74708604D01*
X104874674Y-74825521D01*
X105128705Y-74995259D01*
X105344741Y-75211295D01*
X105514479Y-75465326D01*
X105631396Y-75747590D01*
X105691000Y-76047240D01*
X105691000Y-76352760D01*
X105631396Y-76652410D01*
X105514479Y-76934674D01*
X105344741Y-77188705D01*
X105128705Y-77404741D01*
X104874674Y-77574479D01*
X104592410Y-77691396D01*
X104442585Y-77721198D01*
X104292761Y-77751000D01*
X103987239Y-77751000D01*
X103837415Y-77721198D01*
X103687590Y-77691396D01*
X103405326Y-77574479D01*
X103151295Y-77404741D01*
X102935259Y-77188705D01*
X102765521Y-76934674D01*
X102648604Y-76652410D01*
X102589000Y-76352760D01*
X102589000Y-76047240D01*
X102648604Y-75747590D01*
X102765521Y-75465326D01*
X102935259Y-75211295D01*
X103151295Y-74995259D01*
X103405326Y-74825521D01*
X103687590Y-74708604D01*
X103837415Y-74678802D01*
X103987239Y-74649000D01*
X104292761Y-74649000D01*
X104442585Y-74678802D01*
X104442585Y-74678802D01*
G37*
G36*
X109522585Y-74678802D02*
G01*
X109672410Y-74708604D01*
X109954674Y-74825521D01*
X110208705Y-74995259D01*
X110424741Y-75211295D01*
X110594479Y-75465326D01*
X110711396Y-75747590D01*
X110771000Y-76047240D01*
X110771000Y-76352760D01*
X110711396Y-76652410D01*
X110594479Y-76934674D01*
X110424741Y-77188705D01*
X110208705Y-77404741D01*
X109954674Y-77574479D01*
X109672410Y-77691396D01*
X109522585Y-77721198D01*
X109372761Y-77751000D01*
X109067239Y-77751000D01*
X108917415Y-77721198D01*
X108767590Y-77691396D01*
X108485326Y-77574479D01*
X108231295Y-77404741D01*
X108015259Y-77188705D01*
X107845521Y-76934674D01*
X107728604Y-76652410D01*
X107669000Y-76352760D01*
X107669000Y-76047240D01*
X107728604Y-75747590D01*
X107845521Y-75465326D01*
X108015259Y-75211295D01*
X108231295Y-74995259D01*
X108485326Y-74825521D01*
X108767590Y-74708604D01*
X108917415Y-74678802D01*
X109067239Y-74649000D01*
X109372761Y-74649000D01*
X109522585Y-74678802D01*
X109522585Y-74678802D01*
G37*
G36*
X100611000Y-77751000D02*
G01*
X97509000Y-77751000D01*
X97509000Y-74649000D01*
X100611000Y-74649000D01*
X100611000Y-77751000D01*
X100611000Y-77751000D01*
G37*
G36*
X114602585Y-74678802D02*
G01*
X114752410Y-74708604D01*
X115034674Y-74825521D01*
X115288705Y-74995259D01*
X115504741Y-75211295D01*
X115674479Y-75465326D01*
X115791396Y-75747590D01*
X115851000Y-76047240D01*
X115851000Y-76352760D01*
X115791396Y-76652410D01*
X115674479Y-76934674D01*
X115504741Y-77188705D01*
X115288705Y-77404741D01*
X115034674Y-77574479D01*
X114752410Y-77691396D01*
X114602585Y-77721198D01*
X114452761Y-77751000D01*
X114147239Y-77751000D01*
X113997415Y-77721198D01*
X113847590Y-77691396D01*
X113565326Y-77574479D01*
X113311295Y-77404741D01*
X113095259Y-77188705D01*
X112925521Y-76934674D01*
X112808604Y-76652410D01*
X112749000Y-76352760D01*
X112749000Y-76047240D01*
X112808604Y-75747590D01*
X112925521Y-75465326D01*
X113095259Y-75211295D01*
X113311295Y-74995259D01*
X113565326Y-74825521D01*
X113847590Y-74708604D01*
X113997415Y-74678802D01*
X114147239Y-74649000D01*
X114452761Y-74649000D01*
X114602585Y-74678802D01*
X114602585Y-74678802D01*
G37*
G36*
X92375256Y-74391298D02*
G01*
X92481579Y-74412447D01*
X92782042Y-74536903D01*
X93052451Y-74717585D01*
X93282415Y-74947549D01*
X93463097Y-75217958D01*
X93463098Y-75217960D01*
X93587553Y-75518422D01*
X93651000Y-75837389D01*
X93651000Y-76162611D01*
X93608702Y-76375256D01*
X93587553Y-76481579D01*
X93463097Y-76782042D01*
X93282415Y-77052451D01*
X93052451Y-77282415D01*
X92782042Y-77463097D01*
X92481579Y-77587553D01*
X92375256Y-77608702D01*
X92162611Y-77651000D01*
X91837389Y-77651000D01*
X91624744Y-77608702D01*
X91518421Y-77587553D01*
X91217958Y-77463097D01*
X90947549Y-77282415D01*
X90717585Y-77052451D01*
X90536903Y-76782042D01*
X90412447Y-76481579D01*
X90391298Y-76375256D01*
X90349000Y-76162611D01*
X90349000Y-75837389D01*
X90412447Y-75518422D01*
X90536902Y-75217960D01*
X90536903Y-75217958D01*
X90717585Y-74947549D01*
X90947549Y-74717585D01*
X91217958Y-74536903D01*
X91518421Y-74412447D01*
X91624744Y-74391298D01*
X91837389Y-74349000D01*
X92162611Y-74349000D01*
X92375256Y-74391298D01*
X92375256Y-74391298D01*
G37*
G36*
X164375256Y-74391298D02*
G01*
X164481579Y-74412447D01*
X164782042Y-74536903D01*
X165052451Y-74717585D01*
X165282415Y-74947549D01*
X165463097Y-75217958D01*
X165463098Y-75217960D01*
X165587553Y-75518422D01*
X165651000Y-75837389D01*
X165651000Y-76162611D01*
X165608702Y-76375256D01*
X165587553Y-76481579D01*
X165463097Y-76782042D01*
X165282415Y-77052451D01*
X165052451Y-77282415D01*
X164782042Y-77463097D01*
X164481579Y-77587553D01*
X164375256Y-77608702D01*
X164162611Y-77651000D01*
X163837389Y-77651000D01*
X163624744Y-77608702D01*
X163518421Y-77587553D01*
X163217958Y-77463097D01*
X162947549Y-77282415D01*
X162717585Y-77052451D01*
X162536903Y-76782042D01*
X162412447Y-76481579D01*
X162391298Y-76375256D01*
X162349000Y-76162611D01*
X162349000Y-75837389D01*
X162412447Y-75518422D01*
X162536902Y-75217960D01*
X162536903Y-75217958D01*
X162717585Y-74947549D01*
X162947549Y-74717585D01*
X163217958Y-74536903D01*
X163518421Y-74412447D01*
X163624744Y-74391298D01*
X163837389Y-74349000D01*
X164162611Y-74349000D01*
X164375256Y-74391298D01*
X164375256Y-74391298D01*
G37*
M02*
