G04 #@! TF.GenerationSoftware,KiCad,Pcbnew,(5.1.2)-2*
G04 #@! TF.CreationDate,2019-08-17T13:58:46+01:00*
G04 #@! TF.ProjectId,Sequencer,53657175-656e-4636-9572-2e6b69636164,rev?*
G04 #@! TF.SameCoordinates,Original*
G04 #@! TF.FileFunction,Copper,L1,Top*
G04 #@! TF.FilePolarity,Positive*
%FSLAX46Y46*%
G04 Gerber Fmt 4.6, Leading zero omitted, Abs format (unit mm)*
G04 Created by KiCad (PCBNEW (5.1.2)-2) date 2019-08-17 13:58:46*
%MOMM*%
%LPD*%
G04 APERTURE LIST*
%ADD10C,0.100000*%
%ADD11R,5.000000X5.000000*%
%ADD12O,1.905000X2.000000*%
%ADD13R,1.905000X2.000000*%
%ADD14R,3.500000X1.600000*%
%ADD15C,0.975000*%
%ADD16R,0.900000X1.200000*%
%ADD17R,0.800000X0.900000*%
%ADD18C,1.300000*%
%ADD19R,1.500000X2.700000*%
%ADD20C,3.000000*%
%ADD21R,3.000000X3.000000*%
%ADD22R,2.200000X1.200000*%
%ADD23R,6.400000X5.800000*%
%ADD24C,6.000000*%
%ADD25C,0.800000*%
%ADD26C,0.800000*%
%ADD27C,1.000000*%
%ADD28C,1.600000*%
%ADD29C,2.000000*%
%ADD30C,5.000000*%
%ADD31C,1.500000*%
G04 APERTURE END LIST*
D10*
G36*
X159385000Y-95885000D02*
G01*
X152654000Y-95885000D01*
X152717500Y-73533000D01*
X159448500Y-73533000D01*
X159385000Y-95885000D01*
G37*
X159385000Y-95885000D02*
X152654000Y-95885000D01*
X152717500Y-73533000D01*
X159448500Y-73533000D01*
X159385000Y-95885000D01*
G36*
X158115000Y-95758000D02*
G01*
X141351000Y-95758000D01*
X141351000Y-89027000D01*
X158115000Y-89027000D01*
X158115000Y-95758000D01*
G37*
X158115000Y-95758000D02*
X141351000Y-95758000D01*
X141351000Y-89027000D01*
X158115000Y-89027000D01*
X158115000Y-95758000D01*
G36*
X140335000Y-99060000D02*
G01*
X134493000Y-99060000D01*
X134493000Y-73533000D01*
X140335000Y-73533000D01*
X140335000Y-99060000D01*
G37*
X140335000Y-99060000D02*
X134493000Y-99060000D01*
X134493000Y-73533000D01*
X140335000Y-73533000D01*
X140335000Y-99060000D01*
D11*
X137554000Y-76200000D03*
X129654000Y-76200000D03*
X147815000Y-76200000D03*
X155715000Y-76200000D03*
D12*
X139700000Y-97790000D03*
X142240000Y-97790000D03*
D13*
X144780000Y-97790000D03*
D14*
X101340000Y-104140000D03*
X106940000Y-104140000D03*
D10*
G36*
X116297142Y-98234174D02*
G01*
X116320803Y-98237684D01*
X116344007Y-98243496D01*
X116366529Y-98251554D01*
X116388153Y-98261782D01*
X116408670Y-98274079D01*
X116427883Y-98288329D01*
X116445607Y-98304393D01*
X116461671Y-98322117D01*
X116475921Y-98341330D01*
X116488218Y-98361847D01*
X116498446Y-98383471D01*
X116506504Y-98405993D01*
X116512316Y-98429197D01*
X116515826Y-98452858D01*
X116517000Y-98476750D01*
X116517000Y-99389250D01*
X116515826Y-99413142D01*
X116512316Y-99436803D01*
X116506504Y-99460007D01*
X116498446Y-99482529D01*
X116488218Y-99504153D01*
X116475921Y-99524670D01*
X116461671Y-99543883D01*
X116445607Y-99561607D01*
X116427883Y-99577671D01*
X116408670Y-99591921D01*
X116388153Y-99604218D01*
X116366529Y-99614446D01*
X116344007Y-99622504D01*
X116320803Y-99628316D01*
X116297142Y-99631826D01*
X116273250Y-99633000D01*
X115785750Y-99633000D01*
X115761858Y-99631826D01*
X115738197Y-99628316D01*
X115714993Y-99622504D01*
X115692471Y-99614446D01*
X115670847Y-99604218D01*
X115650330Y-99591921D01*
X115631117Y-99577671D01*
X115613393Y-99561607D01*
X115597329Y-99543883D01*
X115583079Y-99524670D01*
X115570782Y-99504153D01*
X115560554Y-99482529D01*
X115552496Y-99460007D01*
X115546684Y-99436803D01*
X115543174Y-99413142D01*
X115542000Y-99389250D01*
X115542000Y-98476750D01*
X115543174Y-98452858D01*
X115546684Y-98429197D01*
X115552496Y-98405993D01*
X115560554Y-98383471D01*
X115570782Y-98361847D01*
X115583079Y-98341330D01*
X115597329Y-98322117D01*
X115613393Y-98304393D01*
X115631117Y-98288329D01*
X115650330Y-98274079D01*
X115670847Y-98261782D01*
X115692471Y-98251554D01*
X115714993Y-98243496D01*
X115738197Y-98237684D01*
X115761858Y-98234174D01*
X115785750Y-98233000D01*
X116273250Y-98233000D01*
X116297142Y-98234174D01*
X116297142Y-98234174D01*
G37*
D15*
X116029500Y-98933000D03*
D10*
G36*
X118172142Y-98234174D02*
G01*
X118195803Y-98237684D01*
X118219007Y-98243496D01*
X118241529Y-98251554D01*
X118263153Y-98261782D01*
X118283670Y-98274079D01*
X118302883Y-98288329D01*
X118320607Y-98304393D01*
X118336671Y-98322117D01*
X118350921Y-98341330D01*
X118363218Y-98361847D01*
X118373446Y-98383471D01*
X118381504Y-98405993D01*
X118387316Y-98429197D01*
X118390826Y-98452858D01*
X118392000Y-98476750D01*
X118392000Y-99389250D01*
X118390826Y-99413142D01*
X118387316Y-99436803D01*
X118381504Y-99460007D01*
X118373446Y-99482529D01*
X118363218Y-99504153D01*
X118350921Y-99524670D01*
X118336671Y-99543883D01*
X118320607Y-99561607D01*
X118302883Y-99577671D01*
X118283670Y-99591921D01*
X118263153Y-99604218D01*
X118241529Y-99614446D01*
X118219007Y-99622504D01*
X118195803Y-99628316D01*
X118172142Y-99631826D01*
X118148250Y-99633000D01*
X117660750Y-99633000D01*
X117636858Y-99631826D01*
X117613197Y-99628316D01*
X117589993Y-99622504D01*
X117567471Y-99614446D01*
X117545847Y-99604218D01*
X117525330Y-99591921D01*
X117506117Y-99577671D01*
X117488393Y-99561607D01*
X117472329Y-99543883D01*
X117458079Y-99524670D01*
X117445782Y-99504153D01*
X117435554Y-99482529D01*
X117427496Y-99460007D01*
X117421684Y-99436803D01*
X117418174Y-99413142D01*
X117417000Y-99389250D01*
X117417000Y-98476750D01*
X117418174Y-98452858D01*
X117421684Y-98429197D01*
X117427496Y-98405993D01*
X117435554Y-98383471D01*
X117445782Y-98361847D01*
X117458079Y-98341330D01*
X117472329Y-98322117D01*
X117488393Y-98304393D01*
X117506117Y-98288329D01*
X117525330Y-98274079D01*
X117545847Y-98261782D01*
X117567471Y-98251554D01*
X117589993Y-98243496D01*
X117613197Y-98237684D01*
X117636858Y-98234174D01*
X117660750Y-98233000D01*
X118148250Y-98233000D01*
X118172142Y-98234174D01*
X118172142Y-98234174D01*
G37*
D15*
X117904500Y-98933000D03*
D10*
G36*
X141921142Y-83121174D02*
G01*
X141944803Y-83124684D01*
X141968007Y-83130496D01*
X141990529Y-83138554D01*
X142012153Y-83148782D01*
X142032670Y-83161079D01*
X142051883Y-83175329D01*
X142069607Y-83191393D01*
X142085671Y-83209117D01*
X142099921Y-83228330D01*
X142112218Y-83248847D01*
X142122446Y-83270471D01*
X142130504Y-83292993D01*
X142136316Y-83316197D01*
X142139826Y-83339858D01*
X142141000Y-83363750D01*
X142141000Y-84276250D01*
X142139826Y-84300142D01*
X142136316Y-84323803D01*
X142130504Y-84347007D01*
X142122446Y-84369529D01*
X142112218Y-84391153D01*
X142099921Y-84411670D01*
X142085671Y-84430883D01*
X142069607Y-84448607D01*
X142051883Y-84464671D01*
X142032670Y-84478921D01*
X142012153Y-84491218D01*
X141990529Y-84501446D01*
X141968007Y-84509504D01*
X141944803Y-84515316D01*
X141921142Y-84518826D01*
X141897250Y-84520000D01*
X141409750Y-84520000D01*
X141385858Y-84518826D01*
X141362197Y-84515316D01*
X141338993Y-84509504D01*
X141316471Y-84501446D01*
X141294847Y-84491218D01*
X141274330Y-84478921D01*
X141255117Y-84464671D01*
X141237393Y-84448607D01*
X141221329Y-84430883D01*
X141207079Y-84411670D01*
X141194782Y-84391153D01*
X141184554Y-84369529D01*
X141176496Y-84347007D01*
X141170684Y-84323803D01*
X141167174Y-84300142D01*
X141166000Y-84276250D01*
X141166000Y-83363750D01*
X141167174Y-83339858D01*
X141170684Y-83316197D01*
X141176496Y-83292993D01*
X141184554Y-83270471D01*
X141194782Y-83248847D01*
X141207079Y-83228330D01*
X141221329Y-83209117D01*
X141237393Y-83191393D01*
X141255117Y-83175329D01*
X141274330Y-83161079D01*
X141294847Y-83148782D01*
X141316471Y-83138554D01*
X141338993Y-83130496D01*
X141362197Y-83124684D01*
X141385858Y-83121174D01*
X141409750Y-83120000D01*
X141897250Y-83120000D01*
X141921142Y-83121174D01*
X141921142Y-83121174D01*
G37*
D15*
X141653500Y-83820000D03*
D10*
G36*
X140046142Y-83121174D02*
G01*
X140069803Y-83124684D01*
X140093007Y-83130496D01*
X140115529Y-83138554D01*
X140137153Y-83148782D01*
X140157670Y-83161079D01*
X140176883Y-83175329D01*
X140194607Y-83191393D01*
X140210671Y-83209117D01*
X140224921Y-83228330D01*
X140237218Y-83248847D01*
X140247446Y-83270471D01*
X140255504Y-83292993D01*
X140261316Y-83316197D01*
X140264826Y-83339858D01*
X140266000Y-83363750D01*
X140266000Y-84276250D01*
X140264826Y-84300142D01*
X140261316Y-84323803D01*
X140255504Y-84347007D01*
X140247446Y-84369529D01*
X140237218Y-84391153D01*
X140224921Y-84411670D01*
X140210671Y-84430883D01*
X140194607Y-84448607D01*
X140176883Y-84464671D01*
X140157670Y-84478921D01*
X140137153Y-84491218D01*
X140115529Y-84501446D01*
X140093007Y-84509504D01*
X140069803Y-84515316D01*
X140046142Y-84518826D01*
X140022250Y-84520000D01*
X139534750Y-84520000D01*
X139510858Y-84518826D01*
X139487197Y-84515316D01*
X139463993Y-84509504D01*
X139441471Y-84501446D01*
X139419847Y-84491218D01*
X139399330Y-84478921D01*
X139380117Y-84464671D01*
X139362393Y-84448607D01*
X139346329Y-84430883D01*
X139332079Y-84411670D01*
X139319782Y-84391153D01*
X139309554Y-84369529D01*
X139301496Y-84347007D01*
X139295684Y-84323803D01*
X139292174Y-84300142D01*
X139291000Y-84276250D01*
X139291000Y-83363750D01*
X139292174Y-83339858D01*
X139295684Y-83316197D01*
X139301496Y-83292993D01*
X139309554Y-83270471D01*
X139319782Y-83248847D01*
X139332079Y-83228330D01*
X139346329Y-83209117D01*
X139362393Y-83191393D01*
X139380117Y-83175329D01*
X139399330Y-83161079D01*
X139419847Y-83148782D01*
X139441471Y-83138554D01*
X139463993Y-83130496D01*
X139487197Y-83124684D01*
X139510858Y-83121174D01*
X139534750Y-83120000D01*
X140022250Y-83120000D01*
X140046142Y-83121174D01*
X140046142Y-83121174D01*
G37*
D15*
X139778500Y-83820000D03*
D10*
G36*
X116170142Y-85661174D02*
G01*
X116193803Y-85664684D01*
X116217007Y-85670496D01*
X116239529Y-85678554D01*
X116261153Y-85688782D01*
X116281670Y-85701079D01*
X116300883Y-85715329D01*
X116318607Y-85731393D01*
X116334671Y-85749117D01*
X116348921Y-85768330D01*
X116361218Y-85788847D01*
X116371446Y-85810471D01*
X116379504Y-85832993D01*
X116385316Y-85856197D01*
X116388826Y-85879858D01*
X116390000Y-85903750D01*
X116390000Y-86816250D01*
X116388826Y-86840142D01*
X116385316Y-86863803D01*
X116379504Y-86887007D01*
X116371446Y-86909529D01*
X116361218Y-86931153D01*
X116348921Y-86951670D01*
X116334671Y-86970883D01*
X116318607Y-86988607D01*
X116300883Y-87004671D01*
X116281670Y-87018921D01*
X116261153Y-87031218D01*
X116239529Y-87041446D01*
X116217007Y-87049504D01*
X116193803Y-87055316D01*
X116170142Y-87058826D01*
X116146250Y-87060000D01*
X115658750Y-87060000D01*
X115634858Y-87058826D01*
X115611197Y-87055316D01*
X115587993Y-87049504D01*
X115565471Y-87041446D01*
X115543847Y-87031218D01*
X115523330Y-87018921D01*
X115504117Y-87004671D01*
X115486393Y-86988607D01*
X115470329Y-86970883D01*
X115456079Y-86951670D01*
X115443782Y-86931153D01*
X115433554Y-86909529D01*
X115425496Y-86887007D01*
X115419684Y-86863803D01*
X115416174Y-86840142D01*
X115415000Y-86816250D01*
X115415000Y-85903750D01*
X115416174Y-85879858D01*
X115419684Y-85856197D01*
X115425496Y-85832993D01*
X115433554Y-85810471D01*
X115443782Y-85788847D01*
X115456079Y-85768330D01*
X115470329Y-85749117D01*
X115486393Y-85731393D01*
X115504117Y-85715329D01*
X115523330Y-85701079D01*
X115543847Y-85688782D01*
X115565471Y-85678554D01*
X115587993Y-85670496D01*
X115611197Y-85664684D01*
X115634858Y-85661174D01*
X115658750Y-85660000D01*
X116146250Y-85660000D01*
X116170142Y-85661174D01*
X116170142Y-85661174D01*
G37*
D15*
X115902500Y-86360000D03*
D10*
G36*
X118045142Y-85661174D02*
G01*
X118068803Y-85664684D01*
X118092007Y-85670496D01*
X118114529Y-85678554D01*
X118136153Y-85688782D01*
X118156670Y-85701079D01*
X118175883Y-85715329D01*
X118193607Y-85731393D01*
X118209671Y-85749117D01*
X118223921Y-85768330D01*
X118236218Y-85788847D01*
X118246446Y-85810471D01*
X118254504Y-85832993D01*
X118260316Y-85856197D01*
X118263826Y-85879858D01*
X118265000Y-85903750D01*
X118265000Y-86816250D01*
X118263826Y-86840142D01*
X118260316Y-86863803D01*
X118254504Y-86887007D01*
X118246446Y-86909529D01*
X118236218Y-86931153D01*
X118223921Y-86951670D01*
X118209671Y-86970883D01*
X118193607Y-86988607D01*
X118175883Y-87004671D01*
X118156670Y-87018921D01*
X118136153Y-87031218D01*
X118114529Y-87041446D01*
X118092007Y-87049504D01*
X118068803Y-87055316D01*
X118045142Y-87058826D01*
X118021250Y-87060000D01*
X117533750Y-87060000D01*
X117509858Y-87058826D01*
X117486197Y-87055316D01*
X117462993Y-87049504D01*
X117440471Y-87041446D01*
X117418847Y-87031218D01*
X117398330Y-87018921D01*
X117379117Y-87004671D01*
X117361393Y-86988607D01*
X117345329Y-86970883D01*
X117331079Y-86951670D01*
X117318782Y-86931153D01*
X117308554Y-86909529D01*
X117300496Y-86887007D01*
X117294684Y-86863803D01*
X117291174Y-86840142D01*
X117290000Y-86816250D01*
X117290000Y-85903750D01*
X117291174Y-85879858D01*
X117294684Y-85856197D01*
X117300496Y-85832993D01*
X117308554Y-85810471D01*
X117318782Y-85788847D01*
X117331079Y-85768330D01*
X117345329Y-85749117D01*
X117361393Y-85731393D01*
X117379117Y-85715329D01*
X117398330Y-85701079D01*
X117418847Y-85688782D01*
X117440471Y-85678554D01*
X117462993Y-85670496D01*
X117486197Y-85664684D01*
X117509858Y-85661174D01*
X117533750Y-85660000D01*
X118021250Y-85660000D01*
X118045142Y-85661174D01*
X118045142Y-85661174D01*
G37*
D15*
X117777500Y-86360000D03*
D16*
X113410000Y-99060000D03*
X110110000Y-99060000D03*
D17*
X110810000Y-89900000D03*
X112710000Y-89900000D03*
X111760000Y-87900000D03*
D16*
X118490000Y-89662000D03*
X115190000Y-89662000D03*
D10*
G36*
X92184504Y-93331204D02*
G01*
X92208773Y-93334804D01*
X92232571Y-93340765D01*
X92255671Y-93349030D01*
X92277849Y-93359520D01*
X92298893Y-93372133D01*
X92318598Y-93386747D01*
X92336777Y-93403223D01*
X92353253Y-93421402D01*
X92367867Y-93441107D01*
X92380480Y-93462151D01*
X92390970Y-93484329D01*
X92399235Y-93507429D01*
X92405196Y-93531227D01*
X92408796Y-93555496D01*
X92410000Y-93580000D01*
X92410000Y-94380000D01*
X92408796Y-94404504D01*
X92405196Y-94428773D01*
X92399235Y-94452571D01*
X92390970Y-94475671D01*
X92380480Y-94497849D01*
X92367867Y-94518893D01*
X92353253Y-94538598D01*
X92336777Y-94556777D01*
X92318598Y-94573253D01*
X92298893Y-94587867D01*
X92277849Y-94600480D01*
X92255671Y-94610970D01*
X92232571Y-94619235D01*
X92208773Y-94625196D01*
X92184504Y-94628796D01*
X92160000Y-94630000D01*
X91335000Y-94630000D01*
X91310496Y-94628796D01*
X91286227Y-94625196D01*
X91262429Y-94619235D01*
X91239329Y-94610970D01*
X91217151Y-94600480D01*
X91196107Y-94587867D01*
X91176402Y-94573253D01*
X91158223Y-94556777D01*
X91141747Y-94538598D01*
X91127133Y-94518893D01*
X91114520Y-94497849D01*
X91104030Y-94475671D01*
X91095765Y-94452571D01*
X91089804Y-94428773D01*
X91086204Y-94404504D01*
X91085000Y-94380000D01*
X91085000Y-93580000D01*
X91086204Y-93555496D01*
X91089804Y-93531227D01*
X91095765Y-93507429D01*
X91104030Y-93484329D01*
X91114520Y-93462151D01*
X91127133Y-93441107D01*
X91141747Y-93421402D01*
X91158223Y-93403223D01*
X91176402Y-93386747D01*
X91196107Y-93372133D01*
X91217151Y-93359520D01*
X91239329Y-93349030D01*
X91262429Y-93340765D01*
X91286227Y-93334804D01*
X91310496Y-93331204D01*
X91335000Y-93330000D01*
X92160000Y-93330000D01*
X92184504Y-93331204D01*
X92184504Y-93331204D01*
G37*
D18*
X91747500Y-93980000D03*
D10*
G36*
X94109504Y-93331204D02*
G01*
X94133773Y-93334804D01*
X94157571Y-93340765D01*
X94180671Y-93349030D01*
X94202849Y-93359520D01*
X94223893Y-93372133D01*
X94243598Y-93386747D01*
X94261777Y-93403223D01*
X94278253Y-93421402D01*
X94292867Y-93441107D01*
X94305480Y-93462151D01*
X94315970Y-93484329D01*
X94324235Y-93507429D01*
X94330196Y-93531227D01*
X94333796Y-93555496D01*
X94335000Y-93580000D01*
X94335000Y-94380000D01*
X94333796Y-94404504D01*
X94330196Y-94428773D01*
X94324235Y-94452571D01*
X94315970Y-94475671D01*
X94305480Y-94497849D01*
X94292867Y-94518893D01*
X94278253Y-94538598D01*
X94261777Y-94556777D01*
X94243598Y-94573253D01*
X94223893Y-94587867D01*
X94202849Y-94600480D01*
X94180671Y-94610970D01*
X94157571Y-94619235D01*
X94133773Y-94625196D01*
X94109504Y-94628796D01*
X94085000Y-94630000D01*
X93260000Y-94630000D01*
X93235496Y-94628796D01*
X93211227Y-94625196D01*
X93187429Y-94619235D01*
X93164329Y-94610970D01*
X93142151Y-94600480D01*
X93121107Y-94587867D01*
X93101402Y-94573253D01*
X93083223Y-94556777D01*
X93066747Y-94538598D01*
X93052133Y-94518893D01*
X93039520Y-94497849D01*
X93029030Y-94475671D01*
X93020765Y-94452571D01*
X93014804Y-94428773D01*
X93011204Y-94404504D01*
X93010000Y-94380000D01*
X93010000Y-93580000D01*
X93011204Y-93555496D01*
X93014804Y-93531227D01*
X93020765Y-93507429D01*
X93029030Y-93484329D01*
X93039520Y-93462151D01*
X93052133Y-93441107D01*
X93066747Y-93421402D01*
X93083223Y-93403223D01*
X93101402Y-93386747D01*
X93121107Y-93372133D01*
X93142151Y-93359520D01*
X93164329Y-93349030D01*
X93187429Y-93340765D01*
X93211227Y-93334804D01*
X93235496Y-93331204D01*
X93260000Y-93330000D01*
X94085000Y-93330000D01*
X94109504Y-93331204D01*
X94109504Y-93331204D01*
G37*
D18*
X93672500Y-93980000D03*
D19*
X131204000Y-84074000D03*
X136004000Y-84074000D03*
X154800000Y-83820000D03*
X150000000Y-83820000D03*
D20*
X104140000Y-76200000D03*
X109220000Y-76200000D03*
D21*
X99060000Y-76200000D03*
D20*
X114300000Y-76200000D03*
X119380000Y-76200000D03*
D17*
X112710000Y-92980000D03*
X110810000Y-92980000D03*
X111760000Y-94980000D03*
X104140000Y-96663000D03*
X105090000Y-98663000D03*
X103190000Y-98663000D03*
X106680000Y-87900000D03*
X107630000Y-89900000D03*
X105730000Y-89900000D03*
D10*
G36*
X102805142Y-90741174D02*
G01*
X102828803Y-90744684D01*
X102852007Y-90750496D01*
X102874529Y-90758554D01*
X102896153Y-90768782D01*
X102916670Y-90781079D01*
X102935883Y-90795329D01*
X102953607Y-90811393D01*
X102969671Y-90829117D01*
X102983921Y-90848330D01*
X102996218Y-90868847D01*
X103006446Y-90890471D01*
X103014504Y-90912993D01*
X103020316Y-90936197D01*
X103023826Y-90959858D01*
X103025000Y-90983750D01*
X103025000Y-91896250D01*
X103023826Y-91920142D01*
X103020316Y-91943803D01*
X103014504Y-91967007D01*
X103006446Y-91989529D01*
X102996218Y-92011153D01*
X102983921Y-92031670D01*
X102969671Y-92050883D01*
X102953607Y-92068607D01*
X102935883Y-92084671D01*
X102916670Y-92098921D01*
X102896153Y-92111218D01*
X102874529Y-92121446D01*
X102852007Y-92129504D01*
X102828803Y-92135316D01*
X102805142Y-92138826D01*
X102781250Y-92140000D01*
X102293750Y-92140000D01*
X102269858Y-92138826D01*
X102246197Y-92135316D01*
X102222993Y-92129504D01*
X102200471Y-92121446D01*
X102178847Y-92111218D01*
X102158330Y-92098921D01*
X102139117Y-92084671D01*
X102121393Y-92068607D01*
X102105329Y-92050883D01*
X102091079Y-92031670D01*
X102078782Y-92011153D01*
X102068554Y-91989529D01*
X102060496Y-91967007D01*
X102054684Y-91943803D01*
X102051174Y-91920142D01*
X102050000Y-91896250D01*
X102050000Y-90983750D01*
X102051174Y-90959858D01*
X102054684Y-90936197D01*
X102060496Y-90912993D01*
X102068554Y-90890471D01*
X102078782Y-90868847D01*
X102091079Y-90848330D01*
X102105329Y-90829117D01*
X102121393Y-90811393D01*
X102139117Y-90795329D01*
X102158330Y-90781079D01*
X102178847Y-90768782D01*
X102200471Y-90758554D01*
X102222993Y-90750496D01*
X102246197Y-90744684D01*
X102269858Y-90741174D01*
X102293750Y-90740000D01*
X102781250Y-90740000D01*
X102805142Y-90741174D01*
X102805142Y-90741174D01*
G37*
D15*
X102537500Y-91440000D03*
D10*
G36*
X100930142Y-90741174D02*
G01*
X100953803Y-90744684D01*
X100977007Y-90750496D01*
X100999529Y-90758554D01*
X101021153Y-90768782D01*
X101041670Y-90781079D01*
X101060883Y-90795329D01*
X101078607Y-90811393D01*
X101094671Y-90829117D01*
X101108921Y-90848330D01*
X101121218Y-90868847D01*
X101131446Y-90890471D01*
X101139504Y-90912993D01*
X101145316Y-90936197D01*
X101148826Y-90959858D01*
X101150000Y-90983750D01*
X101150000Y-91896250D01*
X101148826Y-91920142D01*
X101145316Y-91943803D01*
X101139504Y-91967007D01*
X101131446Y-91989529D01*
X101121218Y-92011153D01*
X101108921Y-92031670D01*
X101094671Y-92050883D01*
X101078607Y-92068607D01*
X101060883Y-92084671D01*
X101041670Y-92098921D01*
X101021153Y-92111218D01*
X100999529Y-92121446D01*
X100977007Y-92129504D01*
X100953803Y-92135316D01*
X100930142Y-92138826D01*
X100906250Y-92140000D01*
X100418750Y-92140000D01*
X100394858Y-92138826D01*
X100371197Y-92135316D01*
X100347993Y-92129504D01*
X100325471Y-92121446D01*
X100303847Y-92111218D01*
X100283330Y-92098921D01*
X100264117Y-92084671D01*
X100246393Y-92068607D01*
X100230329Y-92050883D01*
X100216079Y-92031670D01*
X100203782Y-92011153D01*
X100193554Y-91989529D01*
X100185496Y-91967007D01*
X100179684Y-91943803D01*
X100176174Y-91920142D01*
X100175000Y-91896250D01*
X100175000Y-90983750D01*
X100176174Y-90959858D01*
X100179684Y-90936197D01*
X100185496Y-90912993D01*
X100193554Y-90890471D01*
X100203782Y-90868847D01*
X100216079Y-90848330D01*
X100230329Y-90829117D01*
X100246393Y-90811393D01*
X100264117Y-90795329D01*
X100283330Y-90781079D01*
X100303847Y-90768782D01*
X100325471Y-90758554D01*
X100347993Y-90750496D01*
X100371197Y-90744684D01*
X100394858Y-90741174D01*
X100418750Y-90740000D01*
X100906250Y-90740000D01*
X100930142Y-90741174D01*
X100930142Y-90741174D01*
G37*
D15*
X100662500Y-91440000D03*
D10*
G36*
X114138142Y-101155174D02*
G01*
X114161803Y-101158684D01*
X114185007Y-101164496D01*
X114207529Y-101172554D01*
X114229153Y-101182782D01*
X114249670Y-101195079D01*
X114268883Y-101209329D01*
X114286607Y-101225393D01*
X114302671Y-101243117D01*
X114316921Y-101262330D01*
X114329218Y-101282847D01*
X114339446Y-101304471D01*
X114347504Y-101326993D01*
X114353316Y-101350197D01*
X114356826Y-101373858D01*
X114358000Y-101397750D01*
X114358000Y-102310250D01*
X114356826Y-102334142D01*
X114353316Y-102357803D01*
X114347504Y-102381007D01*
X114339446Y-102403529D01*
X114329218Y-102425153D01*
X114316921Y-102445670D01*
X114302671Y-102464883D01*
X114286607Y-102482607D01*
X114268883Y-102498671D01*
X114249670Y-102512921D01*
X114229153Y-102525218D01*
X114207529Y-102535446D01*
X114185007Y-102543504D01*
X114161803Y-102549316D01*
X114138142Y-102552826D01*
X114114250Y-102554000D01*
X113626750Y-102554000D01*
X113602858Y-102552826D01*
X113579197Y-102549316D01*
X113555993Y-102543504D01*
X113533471Y-102535446D01*
X113511847Y-102525218D01*
X113491330Y-102512921D01*
X113472117Y-102498671D01*
X113454393Y-102482607D01*
X113438329Y-102464883D01*
X113424079Y-102445670D01*
X113411782Y-102425153D01*
X113401554Y-102403529D01*
X113393496Y-102381007D01*
X113387684Y-102357803D01*
X113384174Y-102334142D01*
X113383000Y-102310250D01*
X113383000Y-101397750D01*
X113384174Y-101373858D01*
X113387684Y-101350197D01*
X113393496Y-101326993D01*
X113401554Y-101304471D01*
X113411782Y-101282847D01*
X113424079Y-101262330D01*
X113438329Y-101243117D01*
X113454393Y-101225393D01*
X113472117Y-101209329D01*
X113491330Y-101195079D01*
X113511847Y-101182782D01*
X113533471Y-101172554D01*
X113555993Y-101164496D01*
X113579197Y-101158684D01*
X113602858Y-101155174D01*
X113626750Y-101154000D01*
X114114250Y-101154000D01*
X114138142Y-101155174D01*
X114138142Y-101155174D01*
G37*
D15*
X113870500Y-101854000D03*
D10*
G36*
X116013142Y-101155174D02*
G01*
X116036803Y-101158684D01*
X116060007Y-101164496D01*
X116082529Y-101172554D01*
X116104153Y-101182782D01*
X116124670Y-101195079D01*
X116143883Y-101209329D01*
X116161607Y-101225393D01*
X116177671Y-101243117D01*
X116191921Y-101262330D01*
X116204218Y-101282847D01*
X116214446Y-101304471D01*
X116222504Y-101326993D01*
X116228316Y-101350197D01*
X116231826Y-101373858D01*
X116233000Y-101397750D01*
X116233000Y-102310250D01*
X116231826Y-102334142D01*
X116228316Y-102357803D01*
X116222504Y-102381007D01*
X116214446Y-102403529D01*
X116204218Y-102425153D01*
X116191921Y-102445670D01*
X116177671Y-102464883D01*
X116161607Y-102482607D01*
X116143883Y-102498671D01*
X116124670Y-102512921D01*
X116104153Y-102525218D01*
X116082529Y-102535446D01*
X116060007Y-102543504D01*
X116036803Y-102549316D01*
X116013142Y-102552826D01*
X115989250Y-102554000D01*
X115501750Y-102554000D01*
X115477858Y-102552826D01*
X115454197Y-102549316D01*
X115430993Y-102543504D01*
X115408471Y-102535446D01*
X115386847Y-102525218D01*
X115366330Y-102512921D01*
X115347117Y-102498671D01*
X115329393Y-102482607D01*
X115313329Y-102464883D01*
X115299079Y-102445670D01*
X115286782Y-102425153D01*
X115276554Y-102403529D01*
X115268496Y-102381007D01*
X115262684Y-102357803D01*
X115259174Y-102334142D01*
X115258000Y-102310250D01*
X115258000Y-101397750D01*
X115259174Y-101373858D01*
X115262684Y-101350197D01*
X115268496Y-101326993D01*
X115276554Y-101304471D01*
X115286782Y-101282847D01*
X115299079Y-101262330D01*
X115313329Y-101243117D01*
X115329393Y-101225393D01*
X115347117Y-101209329D01*
X115366330Y-101195079D01*
X115386847Y-101182782D01*
X115408471Y-101172554D01*
X115430993Y-101164496D01*
X115454197Y-101158684D01*
X115477858Y-101155174D01*
X115501750Y-101154000D01*
X115989250Y-101154000D01*
X116013142Y-101155174D01*
X116013142Y-101155174D01*
G37*
D15*
X115745500Y-101854000D03*
D10*
G36*
X116170142Y-94297174D02*
G01*
X116193803Y-94300684D01*
X116217007Y-94306496D01*
X116239529Y-94314554D01*
X116261153Y-94324782D01*
X116281670Y-94337079D01*
X116300883Y-94351329D01*
X116318607Y-94367393D01*
X116334671Y-94385117D01*
X116348921Y-94404330D01*
X116361218Y-94424847D01*
X116371446Y-94446471D01*
X116379504Y-94468993D01*
X116385316Y-94492197D01*
X116388826Y-94515858D01*
X116390000Y-94539750D01*
X116390000Y-95452250D01*
X116388826Y-95476142D01*
X116385316Y-95499803D01*
X116379504Y-95523007D01*
X116371446Y-95545529D01*
X116361218Y-95567153D01*
X116348921Y-95587670D01*
X116334671Y-95606883D01*
X116318607Y-95624607D01*
X116300883Y-95640671D01*
X116281670Y-95654921D01*
X116261153Y-95667218D01*
X116239529Y-95677446D01*
X116217007Y-95685504D01*
X116193803Y-95691316D01*
X116170142Y-95694826D01*
X116146250Y-95696000D01*
X115658750Y-95696000D01*
X115634858Y-95694826D01*
X115611197Y-95691316D01*
X115587993Y-95685504D01*
X115565471Y-95677446D01*
X115543847Y-95667218D01*
X115523330Y-95654921D01*
X115504117Y-95640671D01*
X115486393Y-95624607D01*
X115470329Y-95606883D01*
X115456079Y-95587670D01*
X115443782Y-95567153D01*
X115433554Y-95545529D01*
X115425496Y-95523007D01*
X115419684Y-95499803D01*
X115416174Y-95476142D01*
X115415000Y-95452250D01*
X115415000Y-94539750D01*
X115416174Y-94515858D01*
X115419684Y-94492197D01*
X115425496Y-94468993D01*
X115433554Y-94446471D01*
X115443782Y-94424847D01*
X115456079Y-94404330D01*
X115470329Y-94385117D01*
X115486393Y-94367393D01*
X115504117Y-94351329D01*
X115523330Y-94337079D01*
X115543847Y-94324782D01*
X115565471Y-94314554D01*
X115587993Y-94306496D01*
X115611197Y-94300684D01*
X115634858Y-94297174D01*
X115658750Y-94296000D01*
X116146250Y-94296000D01*
X116170142Y-94297174D01*
X116170142Y-94297174D01*
G37*
D15*
X115902500Y-94996000D03*
D10*
G36*
X118045142Y-94297174D02*
G01*
X118068803Y-94300684D01*
X118092007Y-94306496D01*
X118114529Y-94314554D01*
X118136153Y-94324782D01*
X118156670Y-94337079D01*
X118175883Y-94351329D01*
X118193607Y-94367393D01*
X118209671Y-94385117D01*
X118223921Y-94404330D01*
X118236218Y-94424847D01*
X118246446Y-94446471D01*
X118254504Y-94468993D01*
X118260316Y-94492197D01*
X118263826Y-94515858D01*
X118265000Y-94539750D01*
X118265000Y-95452250D01*
X118263826Y-95476142D01*
X118260316Y-95499803D01*
X118254504Y-95523007D01*
X118246446Y-95545529D01*
X118236218Y-95567153D01*
X118223921Y-95587670D01*
X118209671Y-95606883D01*
X118193607Y-95624607D01*
X118175883Y-95640671D01*
X118156670Y-95654921D01*
X118136153Y-95667218D01*
X118114529Y-95677446D01*
X118092007Y-95685504D01*
X118068803Y-95691316D01*
X118045142Y-95694826D01*
X118021250Y-95696000D01*
X117533750Y-95696000D01*
X117509858Y-95694826D01*
X117486197Y-95691316D01*
X117462993Y-95685504D01*
X117440471Y-95677446D01*
X117418847Y-95667218D01*
X117398330Y-95654921D01*
X117379117Y-95640671D01*
X117361393Y-95624607D01*
X117345329Y-95606883D01*
X117331079Y-95587670D01*
X117318782Y-95567153D01*
X117308554Y-95545529D01*
X117300496Y-95523007D01*
X117294684Y-95499803D01*
X117291174Y-95476142D01*
X117290000Y-95452250D01*
X117290000Y-94539750D01*
X117291174Y-94515858D01*
X117294684Y-94492197D01*
X117300496Y-94468993D01*
X117308554Y-94446471D01*
X117318782Y-94424847D01*
X117331079Y-94404330D01*
X117345329Y-94385117D01*
X117361393Y-94367393D01*
X117379117Y-94351329D01*
X117398330Y-94337079D01*
X117418847Y-94324782D01*
X117440471Y-94314554D01*
X117462993Y-94306496D01*
X117486197Y-94300684D01*
X117509858Y-94297174D01*
X117533750Y-94296000D01*
X118021250Y-94296000D01*
X118045142Y-94297174D01*
X118045142Y-94297174D01*
G37*
D15*
X117777500Y-94996000D03*
D10*
G36*
X95850142Y-93281174D02*
G01*
X95873803Y-93284684D01*
X95897007Y-93290496D01*
X95919529Y-93298554D01*
X95941153Y-93308782D01*
X95961670Y-93321079D01*
X95980883Y-93335329D01*
X95998607Y-93351393D01*
X96014671Y-93369117D01*
X96028921Y-93388330D01*
X96041218Y-93408847D01*
X96051446Y-93430471D01*
X96059504Y-93452993D01*
X96065316Y-93476197D01*
X96068826Y-93499858D01*
X96070000Y-93523750D01*
X96070000Y-94436250D01*
X96068826Y-94460142D01*
X96065316Y-94483803D01*
X96059504Y-94507007D01*
X96051446Y-94529529D01*
X96041218Y-94551153D01*
X96028921Y-94571670D01*
X96014671Y-94590883D01*
X95998607Y-94608607D01*
X95980883Y-94624671D01*
X95961670Y-94638921D01*
X95941153Y-94651218D01*
X95919529Y-94661446D01*
X95897007Y-94669504D01*
X95873803Y-94675316D01*
X95850142Y-94678826D01*
X95826250Y-94680000D01*
X95338750Y-94680000D01*
X95314858Y-94678826D01*
X95291197Y-94675316D01*
X95267993Y-94669504D01*
X95245471Y-94661446D01*
X95223847Y-94651218D01*
X95203330Y-94638921D01*
X95184117Y-94624671D01*
X95166393Y-94608607D01*
X95150329Y-94590883D01*
X95136079Y-94571670D01*
X95123782Y-94551153D01*
X95113554Y-94529529D01*
X95105496Y-94507007D01*
X95099684Y-94483803D01*
X95096174Y-94460142D01*
X95095000Y-94436250D01*
X95095000Y-93523750D01*
X95096174Y-93499858D01*
X95099684Y-93476197D01*
X95105496Y-93452993D01*
X95113554Y-93430471D01*
X95123782Y-93408847D01*
X95136079Y-93388330D01*
X95150329Y-93369117D01*
X95166393Y-93351393D01*
X95184117Y-93335329D01*
X95203330Y-93321079D01*
X95223847Y-93308782D01*
X95245471Y-93298554D01*
X95267993Y-93290496D01*
X95291197Y-93284684D01*
X95314858Y-93281174D01*
X95338750Y-93280000D01*
X95826250Y-93280000D01*
X95850142Y-93281174D01*
X95850142Y-93281174D01*
G37*
D15*
X95582500Y-93980000D03*
D10*
G36*
X97725142Y-93281174D02*
G01*
X97748803Y-93284684D01*
X97772007Y-93290496D01*
X97794529Y-93298554D01*
X97816153Y-93308782D01*
X97836670Y-93321079D01*
X97855883Y-93335329D01*
X97873607Y-93351393D01*
X97889671Y-93369117D01*
X97903921Y-93388330D01*
X97916218Y-93408847D01*
X97926446Y-93430471D01*
X97934504Y-93452993D01*
X97940316Y-93476197D01*
X97943826Y-93499858D01*
X97945000Y-93523750D01*
X97945000Y-94436250D01*
X97943826Y-94460142D01*
X97940316Y-94483803D01*
X97934504Y-94507007D01*
X97926446Y-94529529D01*
X97916218Y-94551153D01*
X97903921Y-94571670D01*
X97889671Y-94590883D01*
X97873607Y-94608607D01*
X97855883Y-94624671D01*
X97836670Y-94638921D01*
X97816153Y-94651218D01*
X97794529Y-94661446D01*
X97772007Y-94669504D01*
X97748803Y-94675316D01*
X97725142Y-94678826D01*
X97701250Y-94680000D01*
X97213750Y-94680000D01*
X97189858Y-94678826D01*
X97166197Y-94675316D01*
X97142993Y-94669504D01*
X97120471Y-94661446D01*
X97098847Y-94651218D01*
X97078330Y-94638921D01*
X97059117Y-94624671D01*
X97041393Y-94608607D01*
X97025329Y-94590883D01*
X97011079Y-94571670D01*
X96998782Y-94551153D01*
X96988554Y-94529529D01*
X96980496Y-94507007D01*
X96974684Y-94483803D01*
X96971174Y-94460142D01*
X96970000Y-94436250D01*
X96970000Y-93523750D01*
X96971174Y-93499858D01*
X96974684Y-93476197D01*
X96980496Y-93452993D01*
X96988554Y-93430471D01*
X96998782Y-93408847D01*
X97011079Y-93388330D01*
X97025329Y-93369117D01*
X97041393Y-93351393D01*
X97059117Y-93335329D01*
X97078330Y-93321079D01*
X97098847Y-93308782D01*
X97120471Y-93298554D01*
X97142993Y-93290496D01*
X97166197Y-93284684D01*
X97189858Y-93281174D01*
X97213750Y-93280000D01*
X97701250Y-93280000D01*
X97725142Y-93281174D01*
X97725142Y-93281174D01*
G37*
D15*
X97457500Y-93980000D03*
D10*
G36*
X97725142Y-95821174D02*
G01*
X97748803Y-95824684D01*
X97772007Y-95830496D01*
X97794529Y-95838554D01*
X97816153Y-95848782D01*
X97836670Y-95861079D01*
X97855883Y-95875329D01*
X97873607Y-95891393D01*
X97889671Y-95909117D01*
X97903921Y-95928330D01*
X97916218Y-95948847D01*
X97926446Y-95970471D01*
X97934504Y-95992993D01*
X97940316Y-96016197D01*
X97943826Y-96039858D01*
X97945000Y-96063750D01*
X97945000Y-96976250D01*
X97943826Y-97000142D01*
X97940316Y-97023803D01*
X97934504Y-97047007D01*
X97926446Y-97069529D01*
X97916218Y-97091153D01*
X97903921Y-97111670D01*
X97889671Y-97130883D01*
X97873607Y-97148607D01*
X97855883Y-97164671D01*
X97836670Y-97178921D01*
X97816153Y-97191218D01*
X97794529Y-97201446D01*
X97772007Y-97209504D01*
X97748803Y-97215316D01*
X97725142Y-97218826D01*
X97701250Y-97220000D01*
X97213750Y-97220000D01*
X97189858Y-97218826D01*
X97166197Y-97215316D01*
X97142993Y-97209504D01*
X97120471Y-97201446D01*
X97098847Y-97191218D01*
X97078330Y-97178921D01*
X97059117Y-97164671D01*
X97041393Y-97148607D01*
X97025329Y-97130883D01*
X97011079Y-97111670D01*
X96998782Y-97091153D01*
X96988554Y-97069529D01*
X96980496Y-97047007D01*
X96974684Y-97023803D01*
X96971174Y-97000142D01*
X96970000Y-96976250D01*
X96970000Y-96063750D01*
X96971174Y-96039858D01*
X96974684Y-96016197D01*
X96980496Y-95992993D01*
X96988554Y-95970471D01*
X96998782Y-95948847D01*
X97011079Y-95928330D01*
X97025329Y-95909117D01*
X97041393Y-95891393D01*
X97059117Y-95875329D01*
X97078330Y-95861079D01*
X97098847Y-95848782D01*
X97120471Y-95838554D01*
X97142993Y-95830496D01*
X97166197Y-95824684D01*
X97189858Y-95821174D01*
X97213750Y-95820000D01*
X97701250Y-95820000D01*
X97725142Y-95821174D01*
X97725142Y-95821174D01*
G37*
D15*
X97457500Y-96520000D03*
D10*
G36*
X95850142Y-95821174D02*
G01*
X95873803Y-95824684D01*
X95897007Y-95830496D01*
X95919529Y-95838554D01*
X95941153Y-95848782D01*
X95961670Y-95861079D01*
X95980883Y-95875329D01*
X95998607Y-95891393D01*
X96014671Y-95909117D01*
X96028921Y-95928330D01*
X96041218Y-95948847D01*
X96051446Y-95970471D01*
X96059504Y-95992993D01*
X96065316Y-96016197D01*
X96068826Y-96039858D01*
X96070000Y-96063750D01*
X96070000Y-96976250D01*
X96068826Y-97000142D01*
X96065316Y-97023803D01*
X96059504Y-97047007D01*
X96051446Y-97069529D01*
X96041218Y-97091153D01*
X96028921Y-97111670D01*
X96014671Y-97130883D01*
X95998607Y-97148607D01*
X95980883Y-97164671D01*
X95961670Y-97178921D01*
X95941153Y-97191218D01*
X95919529Y-97201446D01*
X95897007Y-97209504D01*
X95873803Y-97215316D01*
X95850142Y-97218826D01*
X95826250Y-97220000D01*
X95338750Y-97220000D01*
X95314858Y-97218826D01*
X95291197Y-97215316D01*
X95267993Y-97209504D01*
X95245471Y-97201446D01*
X95223847Y-97191218D01*
X95203330Y-97178921D01*
X95184117Y-97164671D01*
X95166393Y-97148607D01*
X95150329Y-97130883D01*
X95136079Y-97111670D01*
X95123782Y-97091153D01*
X95113554Y-97069529D01*
X95105496Y-97047007D01*
X95099684Y-97023803D01*
X95096174Y-97000142D01*
X95095000Y-96976250D01*
X95095000Y-96063750D01*
X95096174Y-96039858D01*
X95099684Y-96016197D01*
X95105496Y-95992993D01*
X95113554Y-95970471D01*
X95123782Y-95948847D01*
X95136079Y-95928330D01*
X95150329Y-95909117D01*
X95166393Y-95891393D01*
X95184117Y-95875329D01*
X95203330Y-95861079D01*
X95223847Y-95848782D01*
X95245471Y-95838554D01*
X95267993Y-95830496D01*
X95291197Y-95824684D01*
X95314858Y-95821174D01*
X95338750Y-95820000D01*
X95826250Y-95820000D01*
X95850142Y-95821174D01*
X95850142Y-95821174D01*
G37*
D15*
X95582500Y-96520000D03*
D22*
X100720000Y-88640000D03*
X100720000Y-86360000D03*
X100720000Y-84080000D03*
D23*
X94420000Y-86360000D03*
D24*
X129540000Y-101600000D03*
X154940000Y-101600000D03*
D25*
X101854000Y-83693000D03*
X107696000Y-89916000D03*
X110871000Y-92964000D03*
X110871000Y-92964000D03*
X108204000Y-103759000D03*
X117983000Y-99314000D03*
X117983000Y-98552000D03*
X100076000Y-83693000D03*
X100076000Y-84582000D03*
X100965000Y-84582000D03*
X101854000Y-84582000D03*
X100965000Y-83693000D03*
X141732000Y-83439000D03*
X117856000Y-86360000D03*
X105283000Y-98679000D03*
X108204000Y-104521000D03*
X102537500Y-91440000D03*
X103190000Y-98663000D03*
X131318000Y-85090000D03*
X149860000Y-84836000D03*
X149860000Y-83820000D03*
X149860000Y-82804000D03*
X131318000Y-83058000D03*
X131318000Y-84074000D03*
X141732000Y-84201000D03*
X118490000Y-89662000D03*
X110998000Y-89662000D03*
X100076000Y-99060000D03*
X106553000Y-96901000D03*
D26*
X104190000Y-91440000D02*
X105730000Y-89900000D01*
X102537500Y-91440000D02*
X104190000Y-91440000D01*
D27*
X103190000Y-102290000D02*
X101340000Y-104140000D01*
X108660000Y-99060000D02*
X108204000Y-99516000D01*
X110110000Y-99060000D02*
X108660000Y-99060000D01*
X108204000Y-99516000D02*
X108204000Y-100965000D01*
X107635000Y-101534000D02*
X103190000Y-101534000D01*
X108204000Y-100965000D02*
X107635000Y-101534000D01*
X103190000Y-98663000D02*
X103190000Y-101534000D01*
X103190000Y-101534000D02*
X103190000Y-102290000D01*
D28*
X131204000Y-84074000D02*
X131204000Y-84074000D01*
X149860000Y-83820000D02*
X149860000Y-83820000D01*
X149860000Y-83820000D02*
X149860000Y-83820000D01*
X131204000Y-84074000D02*
X131204000Y-84074000D01*
D27*
X137554000Y-82524000D02*
X136004000Y-84074000D01*
X137554000Y-76200000D02*
X137554000Y-82524000D01*
X139700000Y-78346000D02*
X137554000Y-76200000D01*
D29*
X139700000Y-95885000D02*
X138049000Y-94234000D01*
X139700000Y-97790000D02*
X139700000Y-95885000D01*
X137554000Y-93739000D02*
X139700000Y-95885000D01*
D27*
X118950500Y-97076500D02*
X115902500Y-97076500D01*
X120904000Y-95123000D02*
X118950500Y-97076500D01*
X115902500Y-97076500D02*
X115902500Y-94996000D01*
X116029500Y-97203500D02*
X116029500Y-98933000D01*
X115902500Y-97076500D02*
X116029500Y-97203500D01*
X115745500Y-99217000D02*
X116029500Y-98933000D01*
X115745500Y-101854000D02*
X115745500Y-99217000D01*
X97457500Y-93980000D02*
X97457500Y-95582500D01*
X97457500Y-95582500D02*
X97457500Y-96520000D01*
X136906000Y-90297000D02*
X137554000Y-89649000D01*
X120904000Y-90297000D02*
X136906000Y-90297000D01*
D29*
X137554000Y-89649000D02*
X137554000Y-93739000D01*
D27*
X120904000Y-90297000D02*
X120904000Y-95123000D01*
X107442000Y-95123000D02*
X97917000Y-95123000D01*
X108839000Y-96520000D02*
X107442000Y-95123000D01*
X111760000Y-98399998D02*
X109880002Y-96520000D01*
X115443000Y-104013000D02*
X112395000Y-104013000D01*
X112395000Y-104013000D02*
X112395000Y-100711000D01*
X109880002Y-96520000D02*
X108839000Y-96520000D01*
X115745500Y-101854000D02*
X115745500Y-103710500D01*
X112395000Y-100711000D02*
X111760000Y-100076000D01*
X97917000Y-95123000D02*
X97457500Y-95582500D01*
X115745500Y-103710500D02*
X115443000Y-104013000D01*
X111760000Y-100076000D02*
X111760000Y-98399998D01*
X139077000Y-83934000D02*
X137554000Y-83934000D01*
X139191000Y-83820000D02*
X139077000Y-83934000D01*
X139778500Y-83820000D02*
X139191000Y-83820000D01*
D29*
X137554000Y-76200000D02*
X137554000Y-83934000D01*
X137554000Y-83934000D02*
X137554000Y-89649000D01*
D27*
X115902500Y-77802500D02*
X114300000Y-76200000D01*
X115902500Y-86360000D02*
X115902500Y-77802500D01*
X115902500Y-88949500D02*
X115190000Y-89662000D01*
X115902500Y-86360000D02*
X115902500Y-88949500D01*
X100720000Y-91382500D02*
X100662500Y-91440000D01*
X100720000Y-88640000D02*
X100720000Y-91382500D01*
X110360000Y-94980000D02*
X109106000Y-93726000D01*
X111760000Y-94980000D02*
X110360000Y-94980000D01*
X100662500Y-92240000D02*
X100662500Y-91440000D01*
X102148500Y-93726000D02*
X100662500Y-92240000D01*
X109106000Y-93726000D02*
X102148500Y-93726000D01*
X113410000Y-96630000D02*
X111760000Y-94980000D01*
X113410000Y-99060000D02*
X113410000Y-99060000D01*
X113410000Y-99060000D02*
X113410000Y-96630000D01*
X113870500Y-99520500D02*
X113410000Y-99060000D01*
X113870500Y-101854000D02*
X113870500Y-99520500D01*
X117777500Y-90374500D02*
X118490000Y-89662000D01*
X117777500Y-94996000D02*
X117777500Y-90374500D01*
X112710000Y-89900000D02*
X112710000Y-92980000D01*
X109220000Y-76200000D02*
X109220000Y-83185000D01*
X106680000Y-85725000D02*
X106680000Y-87900000D01*
X109220000Y-83185000D02*
X106680000Y-85725000D01*
X91747500Y-94730000D02*
X91747500Y-93980000D01*
X95582500Y-96520000D02*
X93537500Y-96520000D01*
X93537500Y-96520000D02*
X91747500Y-94730000D01*
X95582500Y-96520000D02*
X95582500Y-99011500D01*
X95582500Y-99011500D02*
X95631000Y-99060000D01*
X95631000Y-99060000D02*
X100076000Y-99060000D01*
X100076000Y-99060000D02*
X100076000Y-96647000D01*
X100092000Y-96663000D02*
X104140000Y-96663000D01*
X100076000Y-96647000D02*
X100092000Y-96663000D01*
X104378000Y-96901000D02*
X104140000Y-96663000D01*
X106553000Y-96901000D02*
X104378000Y-96901000D01*
X95582500Y-93980000D02*
X93672500Y-93980000D01*
D30*
X155715000Y-76200000D02*
X155715000Y-83045000D01*
D27*
X155715000Y-83045000D02*
X154940000Y-83820000D01*
D29*
X142240000Y-97790000D02*
X142240000Y-93980000D01*
X144780000Y-91440000D02*
X142240000Y-93980000D01*
D30*
X155715000Y-83045000D02*
X155715000Y-89776000D01*
X154051000Y-91440000D02*
X144780000Y-91440000D01*
X155715000Y-89776000D02*
X154051000Y-91440000D01*
D31*
X100720000Y-86360000D02*
X94420000Y-86360000D01*
D29*
X99060000Y-76200000D02*
X99060000Y-80264000D01*
X99060000Y-80264000D02*
X96647000Y-82677000D01*
X96647000Y-84133000D02*
X94420000Y-86360000D01*
X96647000Y-82677000D02*
X96647000Y-84133000D01*
M02*
